<?xml version="1.0" standalone="no"?><!DOCTYPE svg PUBLIC "-//W3C//DTD SVG 1.1//EN" "http://www.w3.org/Graphics/SVG/1.1/DTD/svg11.dtd"><svg t="1577930647055" class="icon" viewBox="0 0 1024 1024" version="1.1" xmlns="http://www.w3.org/2000/svg" p-id="35817" xmlns:xlink="http://www.w3.org/1999/xlink" width="400" height="400"><defs><style type="text/css"></style></defs><path d="M808.014048 644.175124l-26.24144-111.326392a26.825266 26.825266 0 0 0-4.071418-9.156849L560.57939 210.515349c0.122911-0.676009 0.322641-1.336654 0.39946-2.043391l18.789977-178.789017A26.84063 26.84063 0 0 0 553.02038 0H295.706771a26.871358 26.871358 0 0 0-26.594808 30.789137l26.287532 178.789018a26.886722 26.886722 0 0 0 26.594808 22.984306h155.497435l108.192168 532.864096-157.971013 191.940465L269.757244 765.411193l96.193008-477.784726c0.046092-0.322641 0.046092-0.645281 0.07682-0.967922H311.285706L214.508872 767.316309c-1.582476 7.943106 0.460915 16.147397 5.592438 22.385116l184.734824 224.496444c5.331253 6.452813 13.013173 9.802131 20.771913 9.802131 0.706737 0 1.39811-0.307277 2.104846-0.353368 0.722101 0.061455 1.413473 0.353368 2.12021 0.353368 7.75874 0 15.456024-3.349317 20.771913-9.802131L635.33984 789.701425c5.146887-6.237719 7.205641-14.472738 5.577074-22.431207L605.303531 591.861245l47.612543 43.617945c2.7194 2.488942 5.915079 4.394059 9.387307 5.592438l111.695123 38.547877a26.686992 26.686992 0 0 0 9.08003 1.490292 26.886722 26.886722 0 0 0 24.935514-36.934673M510.032353 178.789017H345.224431L326.849277 53.773443h196.31916l-13.136084 125.015574z m175.086331 413.271958l-98.005941-89.740195-45.676699-225.003451 189.174974 272.831088 14.780015 62.715199-60.272349-20.802641z" p-id="35818"></path></svg>