<?xml version="1.0" standalone="no"?><!DOCTYPE svg PUBLIC "-//W3C//DTD SVG 1.1//EN" "http://www.w3.org/Graphics/SVG/1.1/DTD/svg11.dtd"><svg t="1577930454931" class="icon" viewBox="0 0 1024 1024" version="1.1" xmlns="http://www.w3.org/2000/svg" p-id="33695" xmlns:xlink="http://www.w3.org/1999/xlink" width="400" height="400"><defs><style type="text/css"></style></defs><path d="M133.688889 62.577778c-11.377778 0-17.066667 5.688889-17.066667 17.066666V910.222222c0 11.377778 5.688889 17.066667 17.066667 17.066667h756.622222c11.377778 0 17.066667-5.688889 17.066667-17.066667V204.8c0-11.377778-5.688889-17.066667-17.066667-17.066667h-341.333333c-22.755556 0-45.511111-11.377778-56.888889-28.444444L401.066667 68.266667c0-5.688889-5.688889-5.688889-11.377778-5.688889H133.688889z m750.933333 921.6H133.688889C88.177778 984.177778 54.044444 950.044444 54.044444 910.222222V79.644444C54.044444 34.133333 88.177778 0 133.688889 0H395.377778c22.755556 0 45.511111 11.377778 56.888889 28.444444l85.333333 91.022223c5.688889 5.688889 5.688889 5.688889 11.377778 5.688889h341.333333c39.822222 0 79.644444 34.133333 79.644445 79.644444V910.222222c-5.688889 39.822222-39.822222 73.955556-85.333334 73.955556z" p-id="33696"></path><path d="M219.022222 420.977778c0 22.755556 17.066667 39.822222 39.822222 39.822222 22.755556 0 39.822222-17.066667 39.822223-39.822222 0-22.755556-17.066667-39.822222-39.822223-39.822222-22.755556 0-39.822222 17.066667-39.822222 39.822222M770.844444 449.422222H378.311111c-17.066667 0-28.444444-11.377778-28.444444-28.444444s11.377778-28.444444 28.444444-28.444445h392.533333c17.066667 0 28.444444 11.377778 28.444445 28.444445s-11.377778 28.444444-28.444445 28.444444M219.022222 671.288889c0 22.755556 17.066667 39.822222 39.822222 39.822222 22.755556 0 39.822222-17.066667 39.822223-39.822222 0-22.755556-17.066667-39.822222-39.822223-39.822222-22.755556 0-39.822222 17.066667-39.822222 39.822222M770.844444 705.422222H378.311111c-17.066667 0-28.444444-11.377778-28.444444-28.444444s11.377778-28.444444 28.444444-28.444445h392.533333c17.066667 0 28.444444 11.377778 28.444445 28.444445 0 11.377778-11.377778 28.444444-28.444445 28.444444" p-id="33697"></path></svg>