<?xml version="1.0" standalone="no"?><!DOCTYPE svg PUBLIC "-//W3C//DTD SVG 1.1//EN" "http://www.w3.org/Graphics/SVG/1.1/DTD/svg11.dtd"><svg t="1577932438235" class="icon" viewBox="0 0 1024 1024" version="1.1" xmlns="http://www.w3.org/2000/svg" p-id="49280" xmlns:xlink="http://www.w3.org/1999/xlink" width="400" height="400"><defs><style type="text/css"></style></defs><path d="M863.417163 497.965355 791.786753 497.965355l0-47.741327c0-18.553565-15.732309-33.086559-35.815717-33.086559l-15.350616 0L740.620419 146.971329c0-23.335475-22.729677-40.932248-52.871161-40.932248L333.002768 106.039082c-30.141484 0-52.871161 17.596773-52.871161 40.932248l0 270.166139-15.349593 0c-20.083407 0-35.815717 14.532995-35.815717 33.086559l0 47.741327-71.631434 0c-31.033807 0-56.281841 23.718191-56.281841 52.870138l0 354.74649c0 29.15297 25.248034 52.871161 56.281841 52.871161l706.081277 0c31.032784 0 56.281841-23.718191 56.281841-52.871161L919.697981 550.835494C919.699004 521.683547 894.449947 497.965355 863.417163 497.965355zM331.29794 157.266813c0.532119-0.039909 1.101077-0.062422 1.705851-0.062422l354.74649 0c0.604774 0 1.172709 0.022513 1.705851 0.062422L689.456133 412.968519c-0.533143 0.039909-1.101077 0.062422-1.705851 0.062422L333.002768 413.030941c-0.603751 0-1.172709-0.022513-1.705851-0.062422L331.296917 157.266813zM280.131607 468.302779 740.621443 468.302779l0 173.962054L280.131607 642.264832 280.131607 468.302779zM868.533694 905.328203c-0.421602 0.611937-2.160199 1.959631-5.116531 1.959631l-706.081277 0c-2.956332 0-4.693906-1.347694-5.116531-1.958608L152.219355 551.089273c0.422625-0.611937 2.160199-1.958608 5.116531-1.958608l71.631434 0 0 111.212918c0 18.553565 15.732309 33.086559 35.815717 33.086559L755.971036 693.430142c20.083407 0 35.815717-14.532995 35.815717-33.086559l0-111.212918 71.630411 0c2.956332 0 4.692882 1.347694 5.116531 1.958608L868.533694 905.328203z" p-id="49281"></path><path d="M641.598148 798.308795m-25.582655 0a25 25 0 1 0 51.16531 0 25 25 0 1 0-51.16531 0Z" p-id="49282"></path><path d="M766.441505 798.308795m-25.582655 0a25 25 0 1 0 51.16531 0 25 25 0 1 0-51.16531 0Z" p-id="49283"></path></svg>