<?xml version="1.0" standalone="no"?><!DOCTYPE svg PUBLIC "-//W3C//DTD SVG 1.1//EN" "http://www.w3.org/Graphics/SVG/1.1/DTD/svg11.dtd"><svg t="1577932507429" class="icon" viewBox="0 0 1024 1024" version="1.1" xmlns="http://www.w3.org/2000/svg" p-id="52314" xmlns:xlink="http://www.w3.org/1999/xlink" width="400" height="400"><defs><style type="text/css"></style></defs><path d="M333.10766 469.44493c5.976952 8.965428 30.888216 46.82797 156.434612 226.18153l0.997375 0.996158c6.974327 8.965428 18.933096 14.947245 29.893274 14.947245 11.953904 0 23.912673-5.981817 29.889624-15.943403 53.809595-77.721051 155.440887-224.191645 159.426738-229.170006l0.994942-0.998591c20.921764-34.874067 32.880533-75.725085 32.880533-116.579753 0-122.557921-99.642623-223.193054-223.193054-223.193054-123.55408 0-223.196703 99.642623-223.196702 223.193054 0.001216 42.844552 11.959985 83.696787 35.872658 120.56682z m186.330318-286.965452c91.669705 0 166.394983 74.726494 166.394983 166.397416 0 29.89449-7.96562 58.786739-23.912673 86.685263-5.976952 8.970293-87.683854 126.543772-141.486151 204.264823-41.847177-59.785331-132.524373-190.314953-141.4898-202.268857-16.938346-25.908639-26.901149-56.796855-26.901149-87.683854 0.991293-91.669705 75.723869-167.39479 167.39479-167.394791z m0 290.950086c67.757032 0 123.555296-55.798263 123.555296-123.555295S587.195011 226.318973 519.437978 226.318973c-67.758249 0-123.556512 55.798263-123.556512 123.555296s54.804537 123.555296 123.556512 123.555295z m0-191.312328c36.862735 0 66.757225 29.89449 66.757225 66.759658 0 37.862543-29.89449 66.758441-66.757225 66.758441-36.871249 0-66.760874-29.889625-66.760873-66.758441 0-36.865168 29.889625-66.759657 66.760873-66.759658z m473.292122 481.266256L854.227559 495.347487h-114.585003l-44.839302 57.793014h124.550238l126.543772 242.127365 1.991101 1.989885c6.971894 8.965428 6.971894 20.924197 1.993534 30.889432-4.98201 9.961586-14.947245 15.943404-26.901149 15.943404h-822.031572c-11.958769 0-21.921572-5.981817-26.906014-15.943404-4.979577-10.96261-3.985851-21.922788 2.988476-31.886807l0.998592-0.991293L202.578037 552.144342h141.491017l-46.832836-57.789365H167.70397l-138.497675 269.028515c-18.934312 26.901149-20.924197 60.776624-5.976952 88.675147 15.939755 29.89449 44.836869 47.830211 78.713561 47.830211h822.031572c32.882966 0 62.77259-17.935721 77.719835-47.830211 12.950062-28.89225 9.961586-62.77259-8.964211-88.675147z m0 0" p-id="52315"></path></svg>