<?xml version="1.0" standalone="no"?><!DOCTYPE svg PUBLIC "-//W3C//DTD SVG 1.1//EN" "http://www.w3.org/Graphics/SVG/1.1/DTD/svg11.dtd"><svg t="1577932284011" class="icon" viewBox="0 0 1024 1024" version="1.1" xmlns="http://www.w3.org/2000/svg" p-id="44411" xmlns:xlink="http://www.w3.org/1999/xlink" width="400" height="400"><defs><style type="text/css"></style></defs><path d="M598.90786 359.173312c16.674775-20.627806 29.434379-44.936445 38.457894-72.998571 8.842389-28.081569 13.444197-58.182121 13.444197-90.486874 24.813129 9.330506 41.327244 18.191314 49.302893 26.709315 8.013511 8.482185 11.929704 20.392446 11.929704 35.534308 0 26.384927-6.316869 52.064796-18.894326 77.221756-12.742209 25.338085-25.860994 37.934984-39.46892 37.934984-5.26798 0-12.233626-1.192152-21.095457-3.39226C623.740432 367.329063 612.533183 363.738281 598.90786 359.173312M214.638987 785.795806c-38.763862-48.994877-66.881247-95.087659-83.863013-138.812509-17.197684-43.728944-25.698289-89.99978-25.698289-138.816602 0-53.597709 10.377348-105.102756 30.950919-154.966421 20.627806-49.862641 50.025347-93.89653 88.139409-132.173299 38.276768-38.115086 82.148975-67.566862 131.831514-88.122013 49.663096-20.591991 101.403504-30.933523 155.309228-30.933523 54.085826 0 105.806791 10.178827 154.967444 30.590715 49.158606 20.409842 92.904946 50.006927 131.506103 88.464821 38.260395 38.276768 67.711148 82.166371 88.447425 131.831514 20.75265 49.681516 31.148417 101.386108 31.148417 155.145499 0 53.238528-10.395768 104.797811-31.148417 154.804738-20.736277 49.990554-50.187029 93.89653-88.447425 131.814118-38.294165 38.295188-82.184791 67.711148-132.010593 88.48324-49.846268 20.753673-101.387132 31.110555-154.461931 31.110555-65.167209 0-117.375268-10.356882-156.5198-31.29168-39.287795-20.933775-58.849316-48.474015-58.849316-82.328054 0-7.327896 1.352811-14.474666 3.934612-21.458731 2.688225-6.966669 6.965645-14.257725 13.08297-22.269189 5.937223 5.611811 11.225669 9.69071 16.170285 12.416797 4.76349 2.707668 9.004071 3.914146 12.758582 3.914146 5.937223 0 14.960737-5.087878 27.376511-15.321964 12.235672-10.358929 24.50716-23.459295 36.742832-39.466873 10.033517-13.588483 18.534122-28.91147 25.679869-46.090734 7.164167-17.018605 10.720156-27.882024 10.720156-32.664957 0-2.870374-4.240581-9.347902-12.57848-19.381419-8.518001-10.051937-12.759605-20.068058-12.759605-30.462802 0-13.588483 3.916193-31.636534 11.730159-53.92312 7.832386-22.431895 19.057031-49.142234 34.017768-80.110549 17.362436-34.883485 31.292704-59.373249 42.193984-73.503061 10.700713-14.113439 21.781072-23.100114 33.17047-27.033703 2.542916-1.028423 6.982018-1.895163 12.920264-2.562359 19.561521-2.039449 34.196847-10.539031 43.908022-25.355481 8.823969-14.942317 16.656355-34.180474 23.316032-57.659211 6.622838-23.298636 10.015098-43.185568 10.015098-59.535955 0-13.264095-2.058892-22.287609-6.29845-26.889417-4.077875-4.565992-12.740162-6.965645-26.185382-6.965645-20.917402 0-38.618553 1.533936-53.255924 4.420683-14.636349 3.086291-25.681916 7.309476-33.331129 13.102413-9.366322 6.642281-24.165376 22.793122-44.577265 48.834218-20.409842 25.842575-41.326221 55.457056-62.602803 88.627527-38.782282 60.745503-70.761624 125.533065-95.593172 194.255239-25.031093 68.902276-37.429471 120.44314-37.429471 154.967444 0 6.820336 1.551332 13.788028 4.420683 21.258163 3.085268 7.505951 8.337899 17.377786 15.989159 29.613458-10.377348 12.94073-18.028609 25.843598-22.954805 38.457894-4.927219 12.57848-7.490601 25.338085-7.490601 38.259372 0 42.878576 23.13593 77.907371 69.226664 105.137549 46.27186 27.215852 107.180068 40.841174 182.885284 40.841174 58.183144 0 114.631784-11.405771 169.764452-34.217313 54.953589-22.629393 103.425557-54.771441 145.259338-96.458889 41.86755-41.832757 74.188676-90.160439 96.801696-144.932903 22.792099-54.771441 34.198893-111.582331 34.198893-170.434717 0-58.866712-11.225669-115.334795-33.857109-169.45746-22.629393-54.067406-54.95052-102.396111-97.143481-144.932903-42.014906-42.338271-89.981361-74.515111-144.411017-96.945983-54.247508-22.468734-111.095237-33.694403-170.613796-33.694403-59.210543 0-115.859751 11.225669-170.107259 33.855062-54.465472 22.630417-102.43295 54.952566-144.264685 96.7843-41.687448 41.507346-73.829496 89.655949-96.459912 144.44581-22.793122 54.969962-34.180474 111.583354-34.180474 170.107259 0 51.360761 7.814989 99.166557 23.460318 142.896524 15.647375 43.88858 38.637995 83.012645 69.245084 117.211539 6.297426 7.309476 12.596899 12.921287 18.696828 16.693194 6.135744 3.859911 11.92868 5.757121 17.198707 5.757121 1.678222 0 4.240581-0.525979 7.471159-1.210571C205.615473 788.683577 209.712791 787.330766 214.638987 785.795806M364.155279 787.655154c25.355481-18.191314 46.091758-39.10667 62.60485-62.422701 16.513092-23.497157 28.063149-49.321312 35.027771-77.565587 17.704221 11.730159 29.614481 21.078061 35.732829 28.244274 6.134721 7.145747 9.18622 14.435781 9.18622 22.107507 0 20.231787-10.196223 44.23241-30.968315 71.789023-20.573571 27.539216-40.117696 41.34464-58.670238 41.34464-5.611811 0-12.939707-2.057869-21.943778-5.973038C386.082684 801.11777 375.887484 795.308461 364.155279 787.655154" p-id="44412"></path></svg>