<?xml version="1.0" standalone="no"?><!DOCTYPE svg PUBLIC "-//W3C//DTD SVG 1.1//EN" "http://www.w3.org/Graphics/SVG/1.1/DTD/svg11.dtd"><svg t="1577932461616" class="icon" viewBox="0 0 1316 1024" version="1.1" xmlns="http://www.w3.org/2000/svg" p-id="50013" xmlns:xlink="http://www.w3.org/1999/xlink" width="514.0625" height="400"><defs><style type="text/css"></style></defs><path d="M1170.285714 36.571429H146.285714C87.771429 36.571429 36.571429 87.771429 36.571429 146.285714v731.428572c0 58.514286 51.2 109.714286 109.714285 109.714285h1024c58.514286 0 109.714286-51.2 109.714286-109.714285V146.285714c0-58.514286-51.2-109.714286-109.714286-109.714285z m36.571429 841.142857c0 21.942857-14.628571 36.571429-36.571429 36.571428H146.285714c-21.942857 0-36.571429-14.628571-36.571428-36.571428V146.285714c0-21.942857 14.628571-36.571429 36.571428-36.571428h1024c21.942857 0 36.571429 14.628571 36.571429 36.571428v731.428572z" p-id="50014"></path><path d="M1002.057143 263.314286L658.285714 468.114286 314.514286 263.314286c-21.942857-14.628571-43.885714-7.314286-51.2 7.314285-14.628571 21.942857-7.314286 43.885714 7.314285 51.2l365.714286 219.428572c7.314286 0 14.628571 7.314286 21.942857 7.314286s14.628571 0 21.942857-7.314286l365.714286-219.428572c14.628571-7.314286 21.942857-29.257143 14.628572-51.2-14.628571-14.628571-36.571429-21.942857-58.514286-7.314285z" p-id="50015"></path></svg>