<?xml version="1.0" standalone="no"?><!DOCTYPE svg PUBLIC "-//W3C//DTD SVG 1.1//EN" "http://www.w3.org/Graphics/SVG/1.1/DTD/svg11.dtd"><svg t="1577930983388" class="icon" viewBox="0 0 1024 1024" version="1.1" xmlns="http://www.w3.org/2000/svg" p-id="37223" xmlns:xlink="http://www.w3.org/1999/xlink" width="400" height="400"><defs><style type="text/css"></style></defs><path d="M840.745 550.609c16.861-41.355 26.294-86.518 26.294-133.888C867.037 220.813 707.666 61.44 511.756 61.44c-195.907 0-355.28 159.373-355.28 355.28 0 47.371 9.332 92.532 26.294 133.889L9.945 756.447 186.178 800.1l73.568 166.001 170.813-203.534c9.941 2.312 20.077 4.317 30.313 5.722 16.66 2.408 33.521 3.713 50.78 3.713 17.267 0 34.228-1.305 50.788-3.713a384.967 384.967 0 0 0 30.409-5.722L763.666 966.1l73.565-166 176.234-43.654-172.72-205.838zM221.708 757.852L98.966 727.443l107.988-128.665c4.82 8.032 9.937 15.958 15.356 23.587 39.244 54.997 93.641 98.451 157.166 124.047l-106.582 127.06-51.186-115.62z m334.709-38.836c-3.412 0.498-6.722 1.102-10.234 1.497-11.344 1.309-22.784 2.013-34.429 2.013s-23.083-0.706-34.427-2.013c-3.41-0.395-6.824-1-10.233-1.497a308.949 308.949 0 0 1-53.795-12.952c-27.403-9.33-53.191-22.378-76.477-38.74a310.106 310.106 0 0 1-41.752-35.022c-27.396-27.499-49.578-60.117-64.932-96.35-15.559-36.633-24.187-76.98-24.187-119.231 0-168.608 137.193-305.801 305.801-305.801s305.801 137.193 305.801 305.8c0 42.251-8.626 82.6-24.186 119.231-15.356 36.232-37.534 68.852-64.93 96.35a310.233 310.233 0 0 1-41.753 35.023c-23.288 16.362-49.076 29.31-76.48 38.74-17.353 5.825-35.316 10.24-53.787 12.952z m245.387 38.836l-51.183 115.62-106.586-126.958c63.53-25.595 117.923-69.05 157.167-124.047a367.043 367.043 0 0 0 15.356-23.587l107.99 128.666-122.744 30.306z m0 0" p-id="37224"></path><path d="M698.636 405.537l-71.684 69.871 16.923 98.667c5.687 33.124-13.236 47.61-43.573 31.658l-88.607-46.586-88.603 46.586c-29.743 15.64-49.367 2.124-43.569-31.658l16.917-98.667-71.68-69.871c-24.069-23.456-17.275-46.293 16.642-51.22l99.06-14.4 44.31-89.768c14.87-30.136 38.689-30.728 53.854 0l44.309 89.768 99.061 14.4c33.252 4.828 41.18 27.3 16.64 51.22z" p-id="37225"></path></svg>