<?xml version="1.0" standalone="no"?><!DOCTYPE svg PUBLIC "-//W3C//DTD SVG 1.1//EN" "http://www.w3.org/Graphics/SVG/1.1/DTD/svg11.dtd"><svg t="1577930927670" class="icon" viewBox="0 0 1024 1024" version="1.1" xmlns="http://www.w3.org/2000/svg" p-id="37079" xmlns:xlink="http://www.w3.org/1999/xlink" width="400" height="400"><defs><style type="text/css"></style></defs><path d="M937.246659 750.0947 387.912355 750.0947c-20.798698 0-37.661761 16.865109-37.661761 37.708833 0 20.799722 16.863063 37.667901 37.661761 37.667901L937.246659 825.471434c20.845771 0 37.708833-16.866133 37.708833-37.667901C974.955492 766.959809 958.092429 750.0947 937.246659 750.0947L937.246659 750.0947z" p-id="37080"></path><path d="M937.246659 457.601042 387.912355 457.601042c-20.798698 0-37.661761 16.866133-37.661761 37.708833 0 20.840654 16.863063 37.661761 37.661761 37.661761L937.246659 532.971637c20.845771 0 37.708833-16.821107 37.708833-37.661761S958.092429 457.601042 937.246659 457.601042L937.246659 457.601042z" p-id="37081"></path><path d="M387.912355 240.519935 937.246659 240.519935c20.845771 0 37.708833-16.86204 37.708833-37.709857 0-20.840654-16.863063-37.709857-37.708833-37.709857L387.912355 165.100222c-20.798698 0-37.661761 16.868179-37.661761 37.709857C350.250594 223.658919 367.113657 240.519935 387.912355 240.519935L387.912355 240.519935z" p-id="37082"></path><path d="M211.210911 118.394481l-93.417623 0c-20.846794 0-37.71088 16.868179-37.71088 37.668924l0 93.463672c0 20.798698 16.863063 37.750789 37.71088 37.750789l93.417623 0c20.844747 0 37.709857-16.95516 37.709857-37.750789l0-93.463672C248.920768 135.261637 232.055658 118.394481 211.210911 118.394481L211.210911 118.394481z" p-id="37083"></path><path d="M211.210911 410.846182l-93.417623 0c-20.846794 0-37.71088 16.909112-37.71088 37.751812l0 93.421716c0 20.839631 16.863063 37.709857 37.71088 37.709857l93.417623 0c20.844747 0 37.709857-16.867156 37.709857-37.709857L248.920768 448.596971C248.920768 427.755294 232.055658 410.846182 211.210911 410.846182L211.210911 410.846182z" p-id="37084"></path><path d="M211.210911 703.338816l-93.417623 0c-20.846794 0-37.71088 16.868179-37.71088 37.709857l0 93.464695c0 20.798698 16.863063 37.666878 37.71088 37.666878l93.417623 0c20.844747 0 37.709857-16.866133 37.709857-37.666878L248.920768 741.04765C248.920768 720.206996 232.055658 703.338816 211.210911 703.338816L211.210911 703.338816z" p-id="37085"></path><path d="M1585.399595 95.022167" p-id="37086"></path></svg>