<?xml version="1.0" standalone="no"?><!DOCTYPE svg PUBLIC "-//W3C//DTD SVG 1.1//EN" "http://www.w3.org/Graphics/SVG/1.1/DTD/svg11.dtd"><svg t="1577931671447" class="icon" viewBox="0 0 1024 1024" version="1.1" xmlns="http://www.w3.org/2000/svg" p-id="38155" xmlns:xlink="http://www.w3.org/1999/xlink" width="400" height="400"><defs><style type="text/css"></style></defs><path d="M924.406419 213.063722L572.319603 15.595792a124.293735 124.293735 0 0 0-120.512937 0L99.71985 213.063722A116.889672 116.889672 0 0 0 39.384615 314.515135v394.93586c0 41.746311 23.078621 80.499491 60.256469 101.372647l352.086815 197.46793a123.427302 123.427302 0 0 0 120.512937 0l352.086816-197.46793A116.574606 116.574606 0 0 0 984.58412 709.450995V314.515135a116.574606 116.574606 0 0 0-60.177701-101.451413z m-11.972528 496.387273c0 16.698525-9.294462 32.373083-24.102587 40.722345l-352.086816 197.389164a50.095574 50.095574 0 0 1-48.362708 0l-352.086815-197.389164a46.708609 46.708609 0 0 1-24.102587-40.722345V314.515135c0-16.777291 9.215695-32.294316 24.02382-40.643578L487.803014 76.32486a49.859274 49.859274 0 0 1 48.283941 0l352.086816 197.546697a46.708609 46.708609 0 0 1 24.102587 40.643578v394.93586h0.157533zM816.811208 321.682898a36.784014 36.784014 0 0 0-27.489552 3.465732L512.063134 472.284686 234.64708 325.38493a37.020314 37.020314 0 0 0-27.332019-3.623265 35.838815 35.838815 0 0 0-21.975889 16.304691 34.499782 34.499782 0 0 0 13.232793 47.890109L475.909253 533.250054v294.272113c0 19.37659 16.225925 35.129915 36.232648 35.129915s36.232648-15.674558 36.232648-35.051149V533.250054l277.258521-147.293589a34.657315 34.657315 0 0 0-8.664329-64.1948z" p-id="38156"></path></svg>