<?xml version="1.0" standalone="no"?><!DOCTYPE svg PUBLIC "-//W3C//DTD SVG 1.1//EN" "http://www.w3.org/Graphics/SVG/1.1/DTD/svg11.dtd"><svg t="1577931109553" class="icon" viewBox="0 0 1024 1024" version="1.1" xmlns="http://www.w3.org/2000/svg" p-id="38017" xmlns:xlink="http://www.w3.org/1999/xlink" width="400" height="400"><defs><style type="text/css"></style></defs><path d="M997.12 486.496c-21.376 21.472-40.384 31.136-69.888 28.16v347.008L512 717.248 96.8 861.696V105.024h412.48c-3.2-29.216 5.984-47.296 28.352-69.664l26.496-26.496 0.512-0.352H108.768A108.8 108.8 0 0 0 0 117.28V1024l512-188.256L1024 1024V459.52c-0.16 0.192-0.288 0.416-0.48 0.576l-26.4 26.4z m7.136-268.672h-23.776a28.704 28.704 0 0 1-25.696-18.944L941.12 165.76c-5.152-9.6-3.008-23.744 4.64-31.456l16.864-16.832a19.872 19.872 0 0 0 0-28.032l-28.032-28a19.936 19.936 0 0 0-28.032 0l-16.832 16.832a28.48 28.48 0 0 1-31.488 4.64l-33.152-13.632a28.736 28.736 0 0 1-18.912-25.696V19.84c0-10.88-8.96-19.84-19.808-19.84h-39.552a19.936 19.936 0 0 0-19.872 19.84v23.744c0 10.912-8.48 22.496-18.88 25.696l-33.152 13.632a28.288 28.288 0 0 1-31.424-4.64l-16.896-16.832a19.84 19.84 0 0 0-28 0l-28 27.968a19.872 19.872 0 0 0 0 28.032l16.832 16.832a28.288 28.288 0 0 1 4.64 31.456l-13.632 33.184a28.704 28.704 0 0 1-25.696 18.944l-23.776-0.032a19.84 19.84 0 0 0-19.808 19.808v39.616c0 10.88 8.896 19.84 19.808 19.84h23.776c10.912 0 22.432 8.512 25.632 18.912l13.664 33.152a28.384 28.384 0 0 1-4.64 31.488l-16.832 16.8a19.936 19.936 0 0 0 0 28.032l28.032 28.032c7.68 7.68 20.288 7.68 28 0l16.896-16.864c7.68-7.68 21.824-9.792 31.36-4.576l33.248 13.632c10.4 3.232 18.88 14.784 18.88 25.696v23.68c0 10.88 8.896 19.808 19.872 19.808h39.552a19.872 19.872 0 0 0 19.808-19.808v-23.68c0-10.912 8.544-22.464 18.912-25.696l33.216-13.632c9.568-5.216 23.776-3.072 31.488 4.576l16.768 16.864c7.744 7.68 20.32 7.68 28 0l28.064-28.032a19.872 19.872 0 0 0 0-28.032l-16.864-16.832a28.448 28.448 0 0 1-4.64-31.488l13.664-33.152a28.672 28.672 0 0 1 25.664-18.88h23.776a19.84 19.84 0 0 0 19.744-19.84V237.664a19.84 19.84 0 0 0-19.744-19.84z m-237.6 177.888a138.304 138.304 0 1 1 0-276.608 138.304 138.304 0 1 1 0 276.608z" p-id="38018"></path></svg>