<?xml version="1.0" standalone="no"?><!DOCTYPE svg PUBLIC "-//W3C//DTD SVG 1.1//EN" "http://www.w3.org/Graphics/SVG/1.1/DTD/svg11.dtd"><svg t="1577931077769" class="icon" viewBox="0 0 1024 1024" version="1.1" xmlns="http://www.w3.org/2000/svg" p-id="37614" xmlns:xlink="http://www.w3.org/1999/xlink" width="400" height="400"><defs><style type="text/css"></style></defs><path d="M939.627329 125.416149H441.639752c-18.68323-68.670807-81.490683-119.254658-155.925466-119.254658s-137.242236 50.583851-155.925466 119.254658h-41.739131c-23.354037 0-42.434783 19.080745-42.434782 42.434783 0 23.354037 19.080745 42.434783 42.434782 42.434782h41.639752c18.68323 68.670807 81.490683 119.254658 155.925466 119.254659s137.242236-50.583851 155.925466-119.254659h497.987577c23.354037 0 42.434783-19.080745 42.434783-42.434782 0.099379-23.354037-18.981366-42.434783-42.335404-42.434783z m-653.913043 119.254658c-42.434783 0-76.819876-34.484472-76.819876-76.819875 0-42.434783 34.484472-76.819876 76.819876-76.819876 42.434783 0 76.819876 34.484472 76.819875 76.819876 0 42.434783-34.484472 76.819876-76.819875 76.819875z m653.913043 575.204969H441.639752c-18.68323-68.670807-81.490683-119.254658-155.925466-119.254658s-137.242236 50.583851-155.925466 119.254658h-41.739131c-23.354037 0-42.434783 19.080745-42.434782 42.434783 0 23.354037 19.080745 42.434783 42.434782 42.434783h41.639752c18.68323 68.670807 81.490683 119.254658 155.925466 119.254658s137.242236-50.583851 155.925466-119.254658h497.987577c23.354037 0 42.434783-19.080745 42.434783-42.434783 0.099379-23.453416-18.981366-42.434783-42.335404-42.434783z m-653.913043 119.15528c-42.434783 0-76.819876-34.484472-76.819876-76.819876 0-42.434783 34.484472-76.819876 76.819876-76.819876 42.434783 0 76.819876 34.484472 76.819875 76.819876 0 42.434783-34.484472 76.819876-76.819875 76.819876z m653.913043-466.484472h-41.639751c-18.68323-68.670807-81.490683-119.254658-155.925466-119.254659s-137.242236 50.583851-155.925466 119.254659H88.049689c-23.354037 0-42.434783 19.080745-42.434782 42.434782 0 23.354037 19.080745 42.434783 42.434782 42.434783h497.987578c18.68323 68.670807 81.490683 119.254658 155.925466 119.254658s137.242236-50.583851 155.925466-119.254658h41.73913c23.354037 0 42.434783-19.080745 42.434783-42.434783 0-23.354037-19.080745-42.434783-42.434783-42.434782z m-197.664596 119.254658c-42.434783 0-76.819876-34.484472-76.819876-76.819876 0-42.434783 34.484472-76.819876 76.819876-76.819875 42.434783 0 76.819876 34.484472 76.819876 76.819875 0 42.434783-34.385093 76.819876-76.819876 76.819876z m0 0" p-id="37615"></path></svg>