<?xml version="1.0" standalone="no"?><!DOCTYPE svg PUBLIC "-//W3C//DTD SVG 1.1//EN" "http://www.w3.org/Graphics/SVG/1.1/DTD/svg11.dtd"><svg t="1577931056752" class="icon" viewBox="0 0 1024 1024" version="1.1" xmlns="http://www.w3.org/2000/svg" p-id="37475" xmlns:xlink="http://www.w3.org/1999/xlink" width="400" height="400"><defs><style type="text/css"></style></defs><path d="M767.987 128.018H256.013L0.026 575.995l255.987 447.977h511.974l255.987-447.977-255.987-447.977z m-37.123 831.959H293.135L73.709 575.996l219.426-383.981h437.729l219.364 383.981-219.364 383.98z" p-id="37476"></path><path d="M512 384.007c-106.12 0-191.991 85.934-191.991 191.989 0 106.058 85.87 191.991 191.99 191.991 105.995 0 191.991-85.934 191.991-191.991 0-106.056-85.996-191.99-191.99-191.99z m0 319.984c-70.622 0-127.993-57.435-127.993-127.995 0-70.558 57.371-127.993 127.992-127.993 70.56 0 127.994 57.435 127.994 127.993 0 70.56-57.435 127.995-127.994 127.995z" p-id="37477"></path></svg>