<?xml version="1.0" standalone="no"?><!DOCTYPE svg PUBLIC "-//W3C//DTD SVG 1.1//EN" "http://www.w3.org/Graphics/SVG/1.1/DTD/svg11.dtd"><svg t="1577930801331" class="icon" viewBox="0 0 1024 1024" version="1.1" xmlns="http://www.w3.org/2000/svg" p-id="36021" xmlns:xlink="http://www.w3.org/1999/xlink" width="400" height="400"><defs><style type="text/css"></style></defs><path d="M798.208 1021.952c3.584 0 7.68 0.512 11.264 1.024 3.584 0.512 6.656 1.024 10.24 1.024 101.376 0 184.32-75.264 193.024-175.616 6.656-51.2-7.68-102.4-40.448-144.384-33.792-40.448-79.36-65.024-131.584-70.144-87.04-8.704-167.424 39.424-200.192 119.296l-2.048 4.608-256.512-99.328 2.048-5.12c10.24-24.576 15.872-50.688 15.872-77.312 0-37.888-10.24-73.216-29.696-103.424l-3.072-4.608 241.152-151.552 3.072 4.096c36.864 49.664 95.232 78.848 156.16 78.848 107.52 0 195.072-87.552 195.072-195.072s-87.552-195.072-195.072-195.072-195.072 87.552-195.072 195.072c0 19.456 3.584 37.376 7.168 54.784l0.512 3.584L325.12 419.84l-2.56-2.048c-35.84-26.624-76.8-40.448-117.76-40.448-107.52 0-195.072 87.552-195.072 195.072C9.728 680.448 97.28 768 204.8 768c52.224 0 101.376-20.48 138.752-57.856l2.56-2.56 279.04 109.056v3.584c-4.096 100.864 72.192 189.44 173.056 201.728zM686.592 814.08c7.168-68.608 64.512-119.808 133.12-119.808h14.848c35.84 3.584 68.096 20.992 90.112 48.64 23.04 28.672 33.792 64 30.208 99.328-7.168 69.12-66.048 120.832-134.656 120.832-4.608 0-9.216 0-13.824-0.512-35.328-3.584-67.584-20.992-90.112-49.664-23.04-28.16-33.28-63.488-29.696-98.816z m80.896-745.472c74.24 0 135.168 60.416 135.168 135.168s-60.416 135.168-135.168 135.168c-74.24 0-135.168-60.416-135.168-135.168s60.416-135.168 135.168-135.168zM204.8 709.632c-74.24 0-135.168-60.416-135.168-135.168 0-74.24 60.416-135.168 135.168-135.168s135.168 60.416 135.168 135.168c0 73.728-61.952 135.168-135.168 135.168z" p-id="36022"></path></svg>