<?xml version="1.0" standalone="no"?><!DOCTYPE svg PUBLIC "-//W3C//DTD SVG 1.1//EN" "http://www.w3.org/Graphics/SVG/1.1/DTD/svg11.dtd"><svg t="1577930869346" class="icon" viewBox="0 0 1024 1024" version="1.1" xmlns="http://www.w3.org/2000/svg" p-id="36748" xmlns:xlink="http://www.w3.org/1999/xlink" width="400" height="400"><defs><style type="text/css"></style></defs><path d="M372.18986667 307.16586667c44.78293333 0 81.37386667 36.59093333 81.37386666 81.37386667s-36.59093333 81.37386667-81.37386666 81.37386666-81.37386667-36.59093333-81.37386667-81.37386666 36.59093333-81.37386667 81.37386667-81.37386667m0-52.97493333c-73.728 0-133.80266667 60.07466667-133.80266667 133.80266666s60.07466667 133.80266667 133.80266667 133.80266667 133.80266667-60.07466667 133.80266666-133.80266667-60.07466667-133.80266667-133.80266666-133.80266666m330.41066666 215.72266666c6.00746667-25.12213333 8.73813333-50.7904 8.73813334-77.0048 0-26.2144-2.73066667-51.88266667-8.73813334-77.0048-2.73066667-10.92266667-13.65333333-18.0224-24.576-15.29173333s-26.76053333 13.65333333-24.02986666 24.576c4.9152 21.84533333 7.64586667 44.78293333 7.64586666 67.72053333 0 22.9376-2.73066667 45.8752-7.64586666 67.72053334-2.73066667 10.92266667 13.1072 22.39146667 24.02986666 24.576 10.92266667 2.18453333 21.84533333-4.36906667 24.576-15.29173334z m-24.02986666 15.83786667h3.2768c11.4688 0.54613333 20.75306667-8.192 21.2992-19.6608 0.54613333-11.4688-8.192-20.75306667-19.6608-21.2992h-4.9152c-11.4688 0-20.75306667 9.28426667-20.75306667 20.75306667 0 10.92266667 9.28426667 20.20693333 20.75306667 20.20693333z m-67.1744 123.42613333c-8.192-13.1072-13.1072-27.8528-13.1072-43.69066666 0-44.2368 36.0448-80.2816 80.2816-80.2816 11.4688 0 20.75306667-9.28426667 20.75306666-20.75306667 0-11.4688-18.56853333-28.94506667-30.03733333-28.94506667-67.1744 0-121.2416 54.0672-121.2416 121.2416 0 24.02986667 7.09973333 46.42133333 19.6608 66.08213334 6.00746667 9.28426667 28.39893333 20.20693333 38.22933333 14.19946666 8.73813333-5.46133333 11.4688-18.0224 5.46133334-27.8528z m-139.264 105.94986667c51.33653333-15.29173333 97.75786667-42.5984 136.53333333-79.73546667 8.192-7.64586667 8.192-20.75306667 0.54613333-28.94506666s-28.94506667-17.47626667-37.13706666-9.8304c-33.86026667 32.22186667-74.82026667 56.79786667-119.6032 69.90506666-10.92266667 3.2768-9.28426667 24.02986667-6.00746667 34.95253334 3.2768 10.92266667 14.7456 16.93013333 25.66826667 13.65333333z m-169.84746667-10.92266667c13.1072-27.8528 40.96-45.8752 72.63573333-45.8752 31.1296 0 59.52853333 18.0224 72.63573334 45.8752 4.9152 10.37653333 16.93013333 14.7456 27.30666666 9.8304 10.37653333-4.9152 16.384-16.384 9.8304-39.86773333-24.576-54.0672-51.33653333-67.72053333-109.7728-69.90506667-47.5136-1.6384-90.112 27.30666667-109.7728 69.90506667-4.9152 10.37653333-0.54613333 34.95253333 9.8304 39.86773333 10.37653333 4.9152 22.39146667 0.54613333 27.30666667-9.8304z m-160.01706667-67.72053333c38.22933333 36.59093333 84.65066667 63.35146667 135.44106667 78.6432 10.92266667 3.2768 22.39146667-2.73066667 25.66826667-13.65333333 3.2768-10.92266667 5.46133333-32.22186667-5.46133334-35.49866667-44.78293333-13.65333333-85.1968-37.13706667-119.05706666-69.35893333-8.192-7.64586667-29.4912 2.73066667-37.13706667 10.92266666-8.192 7.64586667-7.64586667 20.75306667 0.54613333 28.94506667zM72.36266667 485.75146667c44.2368 0 80.2816 36.0448 80.2816 80.2816 0 15.83786667-4.9152 31.1296-13.1072 44.2368-6.5536 9.28426667-3.82293333 22.39146667 6.00746666 28.39893333 9.28426667 6.5536 37.13706667-4.36906667 43.69066667-13.65333333 13.1072-19.6608 20.20693333-43.14453333 20.20693333-67.1744C208.896 490.66666667 154.28266667 436.05333334 87.6544 436.05333334c-11.4688 0-35.49866667 17.47626667-35.49866667 28.94506666 0 11.4688 9.28426667 20.75306667 20.20693334 20.75306667z m-4.36906667 0h4.36906667c11.4688 0 20.75306667-9.28426667 20.75306666-20.75306667 0-11.4688-9.28426667-20.75306667-20.75306666-20.75306666h-6.5536c-11.4688 0.54613333-20.20693333 10.37653333-19.6608 21.84533333 1.09226667 11.4688 10.37653333 20.20693333 21.84533333 19.6608z m-21.2992-170.3936c-6.00746667 25.12213333-8.73813333 50.7904-8.73813333 77.0048s3.2768 51.88266667 8.73813333 77.0048c2.73066667 10.92266667 13.65333333 18.0224 24.576 15.29173333s27.8528-13.65333333 25.66826667-24.576c-4.9152-21.84533333-7.64586667-44.78293333-7.64586667-67.72053333 0-22.9376 2.73066667-45.8752 7.64586667-67.72053333 2.73066667-10.92266667-14.19946667-22.39146667-25.66826667-24.576-10.92266667-2.73066667-21.84533333 4.36906667-24.576 15.29173333z m25.66826667-15.83786667h-4.36906667c-11.4688-0.54613333-21.2992 8.192-21.84533333 19.6608-0.54613333 11.4688 8.192 21.2992 19.6608 21.84533334h6.5536c11.4688 0 20.75306667-9.28426667 20.75306666-20.75306667 0-11.4688-9.28426667-20.75306667-20.75306666-20.75306667z m67.1744-123.97226666c8.73813333 13.1072 13.1072 28.39893333 13.1072 44.2368 0 44.2368-36.0448 80.2816-80.2816 80.2816-11.4688 0-20.75306667 9.28426667-20.75306667 20.75306666S69.632 348.672 80.55466667 348.672c67.1744 0 121.2416-54.0672 121.2416-121.2416 0-24.02986667-7.09973333-47.5136-20.20693334-67.1744-6.5536-9.28426667-27.30666667-19.6608-36.59093333-13.65333333-9.28426667 6.5536-12.01493333 19.11466667-5.46133333 28.94506667zM277.7088 70.144c-50.7904 15.29173333-97.21173333 42.5984-135.44106667 78.6432-8.192 7.64586667-8.73813333 20.75306667-0.54613333 28.94506667 7.64586667 8.192 28.94506667 18.0224 37.13706667 9.8304 33.86026667-32.22186667 74.27413333-55.7056 119.05706666-69.35893333 10.92266667-3.2768 8.73813333-24.02986667 5.46133334-34.95253334-3.2768-10.37653333-14.7456-16.384-25.66826667-13.1072z m169.84746667 10.92266667c-13.1072 27.8528-40.96 45.8752-72.63573334 45.8752-31.1296 0-59.52853333-18.0224-72.63573333-45.8752-4.9152-10.37653333-16.93013333-14.7456-27.30666667-9.8304-10.37653333 4.9152-14.7456 27.8528-9.8304 38.22933333 19.6608 42.05226667 62.2592 69.90506667 109.7728 69.90506667 47.5136 0 90.112-27.30666667 109.7728-69.90506667 4.9152-10.37653333 0.54613333-33.31413333-9.8304-38.22933333-10.37653333-4.9152-22.9376-0.54613333-27.30666666 9.8304z m160.5632 68.8128c-38.22933333-37.13706667-85.1968-64.44373333-136.53333334-79.73546667-10.92266667-3.2768-22.39146667 2.73066667-25.66826666 13.65333334-3.2768 10.92266667-4.9152 27.8528 6.00746666 31.1296 44.78293333 13.65333333 85.74293333 37.6832 119.6032 69.90506666 8.192 7.64586667 28.94506667 1.6384 37.13706667-6.5536 8.192-7.64586667 7.64586667-20.75306667-0.54613333-28.39893333zM678.57066667 299.52c-44.2368 0-80.2816-36.0448-80.2816-80.2816 0-15.83786667 4.36906667-30.58346667 13.1072-43.69066666 6.00746667-9.28426667 3.2768-22.39146667-6.00746667-28.39893334-9.28426667-6.00746667-31.67573333 3.82293333-38.22933333 13.1072-12.56106667 19.6608-19.6608 42.5984-19.6608 66.08213334 0 67.1744 54.0672 121.2416 121.2416 121.2416 11.4688 0 30.03733333-16.384 30.03733333-27.8528s-9.28426667-20.20693333-20.20693333-20.20693334z m3.2768 0h-3.2768c-11.4688 0-20.75306667 9.28426667-20.75306667 20.75306667s9.28426667 20.75306667 20.75306667 20.75306667h4.9152c11.4688-0.54613333 20.20693333-9.8304 19.6608-21.2992-0.54613333-11.4688-9.8304-20.75306667-21.2992-20.20693334zM784.52053333 697.10506667c21.2992-2.73066667 40.96 13.1072 43.69066667 34.4064s-13.1072 40.96-34.4064 43.69066667-40.96-13.1072-43.69066667-34.4064c-2.73066667-21.84533333 13.1072-41.50613333 34.4064-43.69066667m-4.9152-41.50613333c-44.2368 4.9152-75.91253333 45.32906667-70.99733333 89.56586666s45.32906667 75.91253333 89.56586667 70.99733334c44.2368-4.9152 75.91253333-45.32906667 70.99733333-89.56586667-4.9152-44.2368-44.78293333-75.91253333-89.56586667-70.99733333m213.53813334 106.496c1.6384-15.29173333 1.6384-31.1296 0-46.96746667-1.6384-15.83786667-5.46133333-31.1296-10.37653334-45.8752-2.18453333-6.5536-9.28426667-9.8304-15.83786666-7.64586667-6.5536 2.18453333-24.02986667 10.92266667-21.84533334 17.47626667 4.36906667 13.1072 7.64586667 26.2144 9.28426667 39.86773333s1.6384 27.8528 0 40.96c-0.54613333 6.5536 18.0224 11.4688 25.12213333 12.01493334 6.5536 2.18453333 13.1072-2.73066667 13.65333334-9.8304z m-13.65333334 11.4688h2.18453334c7.09973333-0.54613333 12.01493333-6.5536 11.4688-13.1072-0.54613333-7.09973333-6.5536-12.01493333-13.1072-11.4688-1.09226667 0-2.18453333 0-3.2768 0.54613333-6.5536 0.54613333-11.4688 7.09973333-10.92266667 13.65333333 0.54613333 6.00746667 7.09973333 10.92266667 13.65333333 10.37653334z m-31.67573333 78.6432a47.5136 47.5136 0 0 1-10.92266667-25.12213334c-3.2768-26.76053333 15.83786667-50.7904 42.5984-53.52106666 6.5536-0.54613333 11.4688-7.09973333 10.92266667-13.65333334-0.54613333-6.5536-7.09973333-11.4688-13.65333333-10.92266666-40.41386667 4.36906667-69.35893333 40.96-64.44373334 81.37386666 1.6384 14.19946667 7.09973333 27.30666667 16.384 38.22933334 4.36906667 5.46133333 12.01493333 6.00746667 17.47626667 1.6384 5.46133333-4.9152 6.00746667-12.56106667 1.6384-18.0224z m-76.45866667 73.18186666c29.4912-12.56106667 55.7056-32.22186667 76.45866667-57.344 4.36906667-5.46133333 3.82293333-13.1072-1.6384-17.47626666s-20.20693333-19.6608-24.576-14.19946667c-18.0224 21.84533333-40.96 39.3216-67.1744 50.24426667-6.5536 2.73066667-2.18453333 26.2144 0.54613333 32.22186666 2.73066667 6.5536 10.37653333 9.28426667 16.384 6.5536z m-102.67306666 5.46133334c6.00746667-17.47626667 21.2992-30.58346667 40.41386666-32.768 18.56853333-2.18453333 37.13706667 6.5536 46.96746667 22.39146666 3.82293333 6.00746667 11.4688 7.64586667 16.93013333 3.82293334 6.00746667-3.82293333 7.64586667-11.4688 3.82293334-16.93013334-14.7456-24.02986667-42.05226667-37.6832-70.99733334-34.4064-28.39893333 3.2768-51.88266667 22.9376-61.16693333 49.152-2.18453333 6.5536 1.09226667 13.65333333 7.64586667 15.83786667 7.09973333 2.73066667 14.19946667-0.54613333 16.384-7.09973333z m-100.48853334-30.03733334c25.66826667 19.11466667 55.15946667 32.22186667 86.8352 38.22933334 6.5536 1.09226667 13.1072-3.2768 14.19946667-9.8304 1.09226667-6.5536 4.9152-30.03733333-1.6384-31.1296-27.8528-4.9152-53.52106667-16.384-75.91253333-33.31413334-5.46133333-4.36906667-21.84533333 13.65333333-25.66826667 19.11466667-4.36906667 4.9152-3.2768 12.56106667 2.18453333 16.93013333zM615.76533333 815.06986667c26.76053333-3.2768 50.7904 15.83786667 53.52106667 42.5984 1.09226667 9.8304-0.54613333 19.11466667-4.9152 27.30666667-3.2768 6.00746667-0.54613333 13.65333333 5.46133333 16.93013333 6.00746667 3.2768 13.65333333 0.54613333 16.93013334-5.46133333 6.5536-12.56106667 9.28426667-27.30666667 7.64586666-41.50613334-4.36906667-40.41386667-40.96-69.35893333-81.37386666-64.44373333-6.5536 0.54613333-11.4688 7.09973333-10.92266667 13.65333333 0.54613333 7.09973333 7.09973333 11.4688 13.65333333 10.92266667z m-2.73066666 0.54613333c1.09226667 0 1.6384 0 2.73066666-0.54613333 6.5536-0.54613333 11.4688-7.09973333 10.92266667-13.65333333-0.54613333-6.5536-7.09973333-11.4688-13.65333333-10.92266667-1.6384 0-2.73066667 0.54613333-3.82293334 0.54613333-6.5536 1.09226667-11.4688 7.64586667-10.37653333 14.19946667 1.09226667 7.09973333 7.64586667 11.4688 14.19946667 10.37653333zM588.45866667 714.58133334c-1.6384 15.29173333-1.6384 31.1296 0 46.96746666s5.46133333 31.1296 10.92266666 45.8752c2.18453333 6.5536 9.28426667 9.8304 15.83786667 7.64586667 6.5536-2.18453333 24.02986667-10.92266667 21.2992-17.47626667-4.36906667-13.1072-7.64586667-26.2144-9.28426667-40.41386666-1.6384-13.65333333-1.6384-27.8528 0-40.96 0.54613333-6.5536-18.0224-11.4688-25.12213333-12.01493334-6.5536-1.09226667-12.56106667 3.82293333-13.65333333 10.37653334z m14.7456-10.92266667h-2.73066667c-7.09973333 0.54613333-12.01493333 6.5536-11.4688 13.1072 0.54613333 7.09973333 6.5536 12.01493333 13.1072 11.4688 1.09226667 0 2.73066667 0 3.82293333-0.54613333 6.5536-0.54613333 11.4688-7.09973333 10.92266667-13.65333334-1.09226667-6.5536-7.09973333-11.4688-13.65333333-10.37653333z m31.1296-79.18933333c6.00746667 7.09973333 9.8304 15.83786667 10.92266666 25.66826666 3.2768 26.76053333-15.83786667 50.7904-42.5984 53.52106667-6.5536 0.54613333-11.4688 7.09973333-10.92266666 13.65333333s7.09973333 11.4688 13.65333333 10.92266667c40.41386667-4.36906667 69.35893333-40.96 64.44373333-81.37386667-1.6384-14.7456-7.64586667-27.8528-16.93013333-38.77546666-4.36906667-5.46133333-12.01493333-6.00746667-17.47626667-1.6384-4.36906667 4.9152-5.46133333 13.1072-1.09226666 18.0224z m75.91253333-73.18186667c-29.4912 12.56106667-55.15946667 32.22186667-75.91253333 56.79786667-4.36906667 5.46133333-3.82293333 13.1072 1.6384 17.47626666 5.46133333 4.36906667 25.12213333 16.384 29.4912 10.92266667 18.0224-21.2992 40.96-38.77546667 66.62826666-49.69813333 6.5536-2.73066667-2.73066667-22.9376-5.46133333-28.94506667-2.73066667-6.00746667-9.8304-9.28426667-16.384-6.5536z m102.67306667-4.9152c-6.00746667 17.47626667-21.2992 30.58346667-40.41386667 32.768-18.56853333 2.18453333-37.13706667-6.5536-46.96746667-22.39146667-3.82293333-6.00746667-11.4688-7.64586667-16.93013333-3.82293333-6.00746667 3.82293333-13.65333333 26.76053333-10.37653333 32.22186667 14.7456 24.02986667 49.69813333 38.22933333 78.09706666 34.95253333 28.39893333-3.2768 58.9824-24.576 68.26666667-51.33653333 2.18453333-6.5536-9.28426667-27.30666667-15.83786667-30.03733334-6.5536-2.18453333-13.65333333 1.09226667-15.83786666 7.64586667z m101.5808 30.03733333c-25.66826667-19.6608-55.7056-32.768-87.38133334-38.77546666-6.5536-1.09226667-13.1072 3.2768-14.19946666 9.8304-1.09226667 6.5536-1.09226667 27.30666667 5.46133333 28.39893333 27.8528 4.9152 54.0672 16.93013333 76.45866667 33.86026667 5.46133333 4.36906667 17.47626667-10.92266667 21.84533333-16.384 4.36906667-4.9152 3.2768-12.56106667-2.18453333-16.93013334z m52.4288 85.1968c-26.76053333 3.2768-50.7904-15.83786667-53.52106667-42.5984-1.09226667-9.28426667 0.54613333-18.56853333 4.9152-27.30666666 3.2768-6.00746667 0.54613333-13.65333333-5.46133333-16.93013334-6.00746667-3.2768-13.65333333-0.54613333-16.93013334 5.46133334-6.5536 12.56106667-8.73813333 26.76053333-7.09973333 40.96 4.36906667 40.41386667 42.5984 70.4512 83.01226667 65.536 16.93013333-2.18453333 10.37653333-8.192 9.28426666-14.7456-1.09226667-6.00746667-7.64586667-10.92266667-14.19946666-10.37653334z m2.18453333 0h-2.18453333c-6.5536 0.54613333-11.4688 7.09973333-10.92266667 13.65333334 0.54613333 6.5536 7.09973333 14.7456 14.19946667 14.19946666 1.09226667 0 3.2768 0.54613333 4.36906666 0.54613334 6.5536-1.09226667 14.7456 3.82293333 13.65333334-3.2768-0.54613333-4.9152-3.2768-28.39893333-19.11466667-25.12213334z m-325.49546667-31.67573333c13.1072 13.1072 17.47626667 32.768 10.92266667 50.7904-6.5536 18.0224-22.9376 30.03733333-41.50613333 31.67573333-7.09973333 0.54613333-12.01493333 6.5536-11.4688 13.65333334 0.54613333 7.09973333 11.4688 20.75306667 18.0224 20.20693333 27.8528-2.18453333 56.25173333-26.76053333 66.62826666-53.52106667 9.8304-26.76053333 4.36906667-63.8976-15.29173333-84.10453333-4.9152-4.9152-22.39146667-0.54613333-27.30666667 4.36906667-4.9152 4.36906667-4.9152 12.01493333 0 16.93013333z m-21.2992 181.8624c18.0224-4.36906667 37.13706667 1.6384 49.152 16.384s14.19946667 34.95253333 6.5536 51.33653333c-2.73066667 6.00746667-0.54613333 13.65333333 6.00746667 16.384 6.00746667 2.73066667 23.48373333 0.54613333 26.76053333-5.46133333 12.01493333-25.66826667 5.46133333-62.2592-13.1072-84.65066667-18.0224-22.39146667-52.97493333-36.0448-80.2816-29.4912-6.5536 1.6384-12.01493333 19.11466667-10.37653333 25.66826667 1.6384 7.64586667 8.73813333 11.4688 15.29173333 9.8304z m147.456 110.86506667c6.5536-17.47626667 22.39146667-30.03733333 40.96-31.67573334 19.11466667-1.6384 36.59093333 7.64586667 46.42133334 23.48373334 3.2768 6.00746667 10.92266667 7.64586667 16.93013333 4.36906666 6.00746667-3.2768 13.65333333-19.11466667 10.37653333-25.12213333-14.19946667-24.02986667-48.60586667-39.3216-77.0048-36.59093333-28.39893333 2.73066667-59.52853333 23.48373333-69.35893333 49.69813333-2.18453333 6.5536 9.28426667 20.75306667 15.83786667 22.9376 6.5536 2.73066667 13.65333333-0.54613333 15.83786666-7.09973333z m170.93973334-75.91253334c-12.01493333-14.19946667-15.29173333-33.86026667-8.192-51.33653333 7.64586667-17.47626667 24.576-28.39893333 43.14453333-28.94506667 7.09973333 0 12.01493333-6.00746667 12.01493333-12.56106666 0-7.09973333-9.8304-21.2992-16.93013333-21.2992-28.39893333 0.54613333-57.89013333 23.48373333-69.35893333 49.69813333-11.4688 26.2144-8.192 63.35146667 10.37653333 84.65066667 4.36906667 4.9152 22.39146667 2.18453333 27.8528-2.73066667 4.9152-4.36906667 5.46133333-12.01493333 1.09226667-17.47626667z m24.02986666-181.8624c-18.0224 3.82293333-37.13706667-3.82293333-48.60586666-18.56853333-11.4688-15.29173333-12.56106667-35.49866667-3.82293334-51.88266667 3.2768-6.00746667 1.09226667-13.65333333-4.9152-16.93013333-6.00746667-3.2768-23.48373333-2.18453333-26.76053333 3.82293333-13.65333333 24.576-8.73813333 61.71306667 8.192 85.1968 16.93013333 22.9376 50.7904 38.77546667 78.6432 33.31413334 6.5536-1.09226667 13.1072-18.56853333 11.4688-25.12213334-1.09226667-7.09973333-7.64586667-11.4688-14.19946667-9.8304z" p-id="36749"></path></svg>