<?xml version="1.0" standalone="no"?><!DOCTYPE svg PUBLIC "-//W3C//DTD SVG 1.1//EN" "http://www.w3.org/Graphics/SVG/1.1/DTD/svg11.dtd"><svg t="1577930296445" class="icon" viewBox="0 0 1024 1024" version="1.1" xmlns="http://www.w3.org/2000/svg" p-id="31231" xmlns:xlink="http://www.w3.org/1999/xlink" width="400" height="400"><defs><style type="text/css"></style></defs><path d="M888.747 424.533v-35.84A68.693 68.693 0 0 0 820.053 320H203.947a68.693 68.693 0 0 0-68.694 68.693v174.934a21.333 21.333 0 0 0 42.667 0V388.693a26.027 26.027 0 0 1 26.027-26.026h616.106a26.027 26.027 0 0 1 26.027 26.026v14.08h-192a92.587 92.587 0 0 0 0 184.747h192v227.413a26.027 26.027 0 0 1-26.027 26.027H203.947a26.027 26.027 0 0 1-26.027-26.027V712.96h311.467l-46.934 46.933a21.333 21.333 0 1 0 30.294 30.294l81.92-82.774a21.333 21.333 0 0 0 6.4-14.933 20.907 20.907 0 0 0-7.68-15.787L471.893 595.2a21.333 21.333 0 0 0-30.293 30.293l46.08 46.08H156.587a21.333 21.333 0 0 0-21.334 21.334v122.026a68.693 68.693 0 0 0 68.694 68.694h616.106a68.693 68.693 0 0 0 68.694-68.694v-248.32a21.333 21.333 0 0 0-21.334-21.333H654.08a49.92 49.92 0 0 1 0-99.413h213.333a21.333 21.333 0 0 0 21.334-21.334zM315.733 280.747h392.534A21.333 21.333 0 0 0 728.747 256l-26.454-98.133a21.333 21.333 0 0 0-26.026-14.934l-366.08 96a21.333 21.333 0 0 0 5.546 42.667z m351.147-93.014l13.653 50.774H477.867z" p-id="31232"></path><path d="M651.947 474.027a21.333 21.333 0 0 0 0 42.666h53.76a21.333 21.333 0 0 0 0-42.666z" p-id="31233"></path></svg>