<?xml version="1.0" standalone="no"?><!DOCTYPE svg PUBLIC "-//W3C//DTD SVG 1.1//EN" "http://www.w3.org/Graphics/SVG/1.1/DTD/svg11.dtd"><svg t="1577929477946" class="icon" viewBox="0 0 1024 1024" version="1.1" xmlns="http://www.w3.org/2000/svg" p-id="2209" xmlns:xlink="http://www.w3.org/1999/xlink" width="400" height="400"><defs><style type="text/css"></style></defs><path d="M873.472 150.528C776.704 53.248 648.192 0 512 0S247.296 53.248 150.528 150.528 0 375.808 0 512s53.248 264.704 150.528 361.472S375.808 1024 512 1024c25.6 0 41.984-16.384 41.984-41.984s-16.384-41.984-41.984-41.984c-236.032 0-428.544-192-428.544-428.544S275.968 83.456 512 83.456s428.544 192 428.544 428.544c0 25.6 16.384 41.984 41.984 41.984s41.984-16.384 41.984-41.984c-0.512-136.192-53.76-264.704-151.04-361.472z" p-id="2210"></path><path d="M1013.76 701.44c-0.512-9.728-4.608-17.92-11.264-22.528l-0.512-0.512-0.512-0.512c-8.192-8.192-17.92-12.288-28.672-12.288s-20.48 4.608-28.672 12.288l-179.2 179.2-7.168 7.168-7.168-7.168-107.52-107.52c-8.192-8.192-17.92-12.288-28.672-12.288s-20.48 4.608-28.672 12.288c-16.384 16.384-16.384 40.448 0 57.344l143.36 143.36c8.192 8.192 17.92 12.288 28.672 12.288s20.48-4.608 28.672-12.288l215.04-215.04c8.704-8.704 13.312-20.992 12.288-33.792zM449.024 477.696L362.496 354.304c-4.608-6.656-6.656-13.312-6.656-19.968 0-11.776 5.12-20.48 14.848-27.136 7.168-5.12 14.848-7.68 23.04-7.68 11.776 0 21.504 5.632 28.672 16.896L512 457.216l89.6-140.288c7.168-11.264 16.384-16.896 28.16-16.896 10.24 0 18.944 3.072 26.624 9.728 7.68 6.656 11.776 14.848 11.776 24.064 0 7.168-2.048 13.824-6.656 20.48l-86.528 123.392H650.24c5.12 0 9.216 1.536 12.8 5.12 4.608 4.608 6.656 10.24 6.656 17.408 0 7.68-2.56 13.824-8.192 17.92-3.072 2.56-6.656 3.584-11.264 3.584h-100.864v49.664H650.24c4.608 0 8.704 1.536 11.776 4.608 5.12 4.608 7.68 10.24 7.68 17.408 0 8.704-3.584 15.36-10.24 19.456-2.56 1.536-5.632 2.56-9.216 2.56h-100.864v77.312c0 7.68-2.56 14.336-7.68 19.968-7.168 7.68-17.408 11.264-30.208 11.264-15.36 0-26.112-5.12-32.768-15.872-2.56-4.608-4.096-9.728-4.096-15.36v-77.312H373.76c-5.12 0-9.216-1.536-12.8-5.12-4.608-4.608-6.656-10.24-6.656-17.408 0-8.192 3.072-14.336 9.216-18.432 3.072-2.048 6.656-3.072 10.24-3.072h100.864v-49.664H373.76c-5.632 0-9.728-1.536-13.312-5.12-4.096-4.608-6.144-9.728-6.144-16.384 0-9.216 3.584-15.36 10.24-19.968 2.56-1.536 5.632-2.56 9.216-2.56h75.264z" p-id="2211"></path></svg>