<?xml version="1.0" standalone="no"?><!DOCTYPE svg PUBLIC "-//W3C//DTD SVG 1.1//EN" "http://www.w3.org/Graphics/SVG/1.1/DTD/svg11.dtd"><svg t="1577930365582" class="icon" viewBox="0 0 1024 1024" version="1.1" xmlns="http://www.w3.org/2000/svg" p-id="32233" xmlns:xlink="http://www.w3.org/1999/xlink" width="400" height="400"><defs><style type="text/css"></style></defs><path d="M355.776 505.578667h-119.146667a143.338667 143.338667 0 0 1-143.168-143.189334v-119.146666a143.36 143.36 0 0 1 143.168-143.168h119.146667a143.338667 143.338667 0 0 1 143.168 143.168v119.146666a143.296 143.296 0 0 1-143.168 143.189334zM236.629333 142.741333a100.608 100.608 0 0 0-100.501333 100.501334v119.146666a100.629333 100.629333 0 0 0 100.501333 100.522667h119.146667a100.608 100.608 0 0 0 100.501333-100.522667v-119.146666a100.629333 100.629333 0 0 0-100.501333-100.501334h-119.146667zM768.704 523.584a142.869333 142.869333 0 0 1-53.568-10.432l-110.485333-44.608a142.250667 142.250667 0 0 1-78.186667-76.778667 142.272 142.272 0 0 1-0.981333-109.589333l44.586666-110.485333a142.592 142.592 0 0 1 132.8-89.642667c18.368 0 36.394667 3.52 53.546667 10.432l110.506667 44.608a142.293333 142.293333 0 0 1 78.186666 76.8 142.208 142.208 0 0 1 1.002667 109.568l-44.608 110.506667a142.613333 142.613333 0 0 1-132.8 89.621333zM702.869333 124.736a100.138667 100.138667 0 0 0-93.248 62.933333l-44.586666 110.485334a99.882667 99.882667 0 0 0 0.704 76.928 99.733333 99.733333 0 0 0 54.890666 53.866666l110.506667 44.608a99.626667 99.626667 0 0 0 37.589333 7.36 100.117333 100.117333 0 0 0 93.226667-62.912l44.608-110.506666c10.048-24.896 9.792-52.202667-0.704-76.928s-29.994667-43.861333-54.890667-53.888l-110.506666-44.608a100.202667 100.202667 0 0 0-37.589334-7.338667zM355.776 933.397333h-119.146667a143.338667 143.338667 0 0 1-143.168-143.168v-119.168a143.36 143.36 0 0 1 143.168-143.168h119.146667a143.338667 143.338667 0 0 1 143.168 143.168v119.168c0.021333 78.933333-64.213333 143.168-143.168 143.168z m-119.146667-362.837333a100.608 100.608 0 0 0-100.501333 100.501333v119.168a100.629333 100.629333 0 0 0 100.501333 100.501334h119.146667a100.608 100.608 0 0 0 100.501333-100.501334v-119.168a100.629333 100.629333 0 0 0-100.501333-100.501333h-119.146667zM795.349333 933.397333h-119.146666a143.338667 143.338667 0 0 1-143.168-143.168v-119.168a143.36 143.36 0 0 1 143.168-143.168h119.146666a143.338667 143.338667 0 0 1 143.168 143.168v119.168c0.021333 78.933333-64.213333 143.168-143.168 143.168z m-119.146666-362.837333a100.608 100.608 0 0 0-100.501334 100.501333v119.168a100.629333 100.629333 0 0 0 100.501334 100.501334h119.146666a100.608 100.608 0 0 0 100.501334-100.501334v-119.168a100.629333 100.629333 0 0 0-100.501334-100.501333h-119.146666z" p-id="32234"></path></svg>