<?xml version="1.0" standalone="no"?><!DOCTYPE svg PUBLIC "-//W3C//DTD SVG 1.1//EN" "http://www.w3.org/Graphics/SVG/1.1/DTD/svg11.dtd"><svg t="1577774801075" class="icon" viewBox="0 0 1024 1024" version="1.1" xmlns="http://www.w3.org/2000/svg" p-id="102983" xmlns:xlink="http://www.w3.org/1999/xlink" width="400" height="400"><defs><style type="text/css"></style></defs><path d="M954.1888 786.3552h-332.032v178.176h130.8416c16.0256 0 29.4912 12.928 29.4912 29.4656 0 16.5632-12.928 30.0032-29.4912 30.0032H271.0016a29.4912 29.4912 0 0 1-29.4912-29.4912c0-16.5376 12.928-29.9776 29.4912-29.9776h130.3296v-178.176H69.8112A69.8368 69.8368 0 0 1 0 716.544V69.8112A70.1696 70.1696 0 0 1 69.8112 0h884.3776A69.8368 69.8368 0 0 1 1024 69.8112V716.544a69.8368 69.8368 0 0 1-69.8112 69.8112z m-492.8768 178.176h100.864v-178.176h-100.864v178.176zM964.5312 59.4688H59.4688v667.4176h905.0624V59.4688zM175.3344 364.8512l107.5456-108.0832c5.7088-5.6832 12.9536-8.7808 21.2224-8.7808 7.7568 0 15.5136 3.0976 21.1968 8.7808 11.904 11.392 11.3664 30.5152 0 41.8816l-92.0576 92.0832 92.0576 92.032a30.1568 30.1568 0 0 1-0.512 42.4192 28.16 28.16 0 0 1-20.6848 8.7808c-7.7568 0-15.0016-3.0976-20.6848-8.7808l-107.0592-107.0592-1.024-1.024a59.52 59.52 0 0 1-5.7088-4.6592 29.2864 29.2864 0 0 1-8.7808-21.1968v-1.0496c0-8.2688 3.0976-15.5136 8.7808-21.1968a23.3472 23.3472 0 0 1 5.7088-4.1472z m391.4752-112.7424a30.9248 30.9248 0 0 1 25.8816-15.488c5.1712 0 10.3424 1.536 14.976 4.1216 7.2448 4.1216 11.904 10.3424 13.9776 18.0992 2.0736 7.7568 1.024 16.0256-3.0976 22.7584l-160.8448 278.2464a30.1312 30.1312 0 0 1-40.3456 10.8544 29.2352 29.2352 0 0 1-11.3664-40.3456l160.8192-278.2464z m123.1104 41.9072c0-8.2944 3.0976-15.5136 8.7808-21.2224 5.6832-5.6832 13.44-8.7808 21.1968-8.7808 7.7568 0 15.0016 3.0976 20.6848 8.7808l107.0592 107.0592 1.0496 0.512c2.048 1.0496 4.1216 2.5856 5.6832 4.1472 5.6832 5.6832 8.7808 13.44 8.7808 21.1968v3.1232c-0.512 7.2448-3.6096 13.952-8.7808 19.1232-1.5616 1.536-3.0976 2.5856-5.1712 5.6832l-108.1088 108.0832a30.08 30.08 0 0 1-21.1968 8.8064c-8.2688 0-15.5136-3.0976-21.1968-8.8064a30.1568 30.1568 0 0 1-8.7808-21.1968c0-8.2688 3.0976-15.5136 8.7808-21.1968l92.0576-92.0576-92.0576-92.0576a30.1568 30.1568 0 0 1-8.7808-21.1968z" p-id="102984"></path></svg>