<?xml version="1.0" standalone="no"?><!DOCTYPE svg PUBLIC "-//W3C//DTD SVG 1.1//EN" "http://www.w3.org/Graphics/SVG/1.1/DTD/svg11.dtd"><svg t="1577931765663" class="icon" viewBox="0 0 1024 1024" version="1.1" xmlns="http://www.w3.org/2000/svg" p-id="39517" xmlns:xlink="http://www.w3.org/1999/xlink" width="400" height="400"><defs><style type="text/css"></style></defs><path d="M661.333333 832h40.533334v-343.466667h-29.866667c-2.133333 12.8-6.4 23.466667-12.8 32-6.4 8.533333-12.8 14.933333-21.333333 19.2-8.533333 4.266667-19.2 8.533333-29.866667 10.666667-10.666667 2.133333-21.333333 2.133333-32 2.133333v32h85.333333v247.466667z m-202.666666-49.066667c-6.4 6.4-14.933333 10.666667-23.466667 12.8-8.533333 2.133333-17.066667 4.266667-27.733333 4.266667-23.466667 0-40.533333-6.4-51.2-21.333333-12.8-14.933333-19.2-32-19.2-53.333334h-40.533334c0 17.066667 2.133333 34.133333 6.4 46.933334 4.266667 12.8 12.8 25.6 21.333334 34.133333 10.666667 8.533333 21.333333 17.066667 36.266666 21.333333 12.8 4.266667 29.866667 6.4 46.933334 6.4 14.933333 0 29.866667-2.133333 44.8-6.4 14.933333-4.266667 25.6-10.666667 36.266666-19.2s19.2-19.2 25.6-32c6.4-12.8 8.533333-27.733333 8.533334-44.8 0-21.333333-4.266667-38.4-14.933334-53.333333-10.666667-14.933333-25.6-25.6-44.8-29.866667 12.8-6.4 23.466667-14.933333 32-27.733333 8.533333-12.8 12.8-25.6 12.8-40.533333s-2.133333-29.866667-8.533333-40.533334c-4.266667-10.666667-12.8-21.333333-21.333333-27.733333s-19.2-12.8-32-17.066667c-12.8-4.266667-25.6-6.4-40.533334-6.4-17.066667 0-32 2.133333-44.8 8.533334-12.8 6.4-23.466667 12.8-32 23.466666-8.533333 10.666667-14.933333 21.333333-19.2 34.133334s-6.4 27.733333-8.533333 44.8H341.333333c0-10.666667 2.133333-19.2 4.266667-27.733334s6.4-17.066667 10.666667-23.466666c4.266667-6.4 10.666667-12.8 19.2-17.066667 8.533333-4.266667 17.066667-6.4 27.733333-6.4 17.066667 0 32 4.266667 42.666667 12.8 10.666667 8.533333 17.066667 23.466667 17.066666 40.533333 0 8.533333-2.133333 17.066667-4.266666 23.466667-4.266667 6.4-8.533333 12.8-12.8 17.066667-4.266667 4.266667-12.8 8.533333-19.2 10.666666-8.533333 2.133333-14.933333 4.266667-23.466667 4.266667h-17.066667v34.133333c8.533333 0 14.933333-2.133333 23.466667-2.133333 10.666667 0 19.2 2.133333 27.733333 4.266667s17.066667 6.4 21.333334 12.8c6.4 6.4 10.666667 12.8 14.933333 21.333333 4.266667 8.533333 6.4 17.066667 6.4 27.733333s-2.133333 19.2-6.4 27.733334c-2.133333 10.666667-8.533333 19.2-14.933333 23.466666z" p-id="39518"></path><path d="M896 960H128c-35.285333 0-64-28.714667-64-64V213.333333c0-35.285333 28.714667-64 64-64h768c35.285333 0 64 28.714667 64 64v682.666667c0 35.285333-28.714667 64-64 64zM128 192a21.333333 21.333333 0 0 0-21.333333 21.333333v682.666667a21.333333 21.333333 0 0 0 21.333333 21.333333h768c11.733333 0 21.333333-9.6 21.333333-21.333333V213.333333a21.333333 21.333333 0 0 0-21.333333-21.333333H128z" p-id="39519"></path><path d="M85.333333 341.333333h853.333334v42.666667H85.333333zM213.333333 42.666667h42.666667v213.333333H213.333333zM768 42.666667h42.666667v213.333333h-42.666667z" p-id="39520"></path></svg>