<?xml version="1.0" standalone="no"?><!DOCTYPE svg PUBLIC "-//W3C//DTD SVG 1.1//EN" "http://www.w3.org/Graphics/SVG/1.1/DTD/svg11.dtd"><svg t="1577772789346" class="icon" viewBox="0 0 1024 1024" version="1.1" xmlns="http://www.w3.org/2000/svg" p-id="3558" xmlns:xlink="http://www.w3.org/1999/xlink" width="400" height="400"><defs><style type="text/css"></style></defs><path d="M510.02368 164.43392c-179.06176 0-323.09248 147.92192-323.09248 330.88 0 93.43488 35.03616 179.072 101.21216 241.34656l7.78752 7.78752h428.20096l7.7824-7.78752c66.18112-66.17088 101.21728-147.92704 101.21728-241.34656-0.00512-182.95296-144.03584-330.88-323.10784-330.88z m194.6368 529.41824h-393.1648c-50.60608-50.6112-77.85472-120.68352-77.85472-198.528C233.64096 339.60448 358.21056 215.04 510.01856 215.04s276.3776 124.56448 276.3776 280.27904c0.01536 73.9584-31.1296 144.03072-81.73568 198.53312zM323.17952 757.5552h373.69856v46.71488H323.17952zM346.53696 817.88928h326.97856v46.70464H346.53696zM362.10688 880.1792L420.50048 1008.64h171.27424l62.28992-128.4608H362.10688z m202.4192 77.84448H451.64032l-15.56992-31.13472h144.0256l-15.56992 31.13472zM525.60384 145.46432V29.70624c0-11.67872-7.78752-19.46624-19.46624-19.46624s-19.46112 7.78752-19.46112 19.46624v115.75808h38.92736zM40.81664 533.72416c-11.6736 0-19.456 7.7824-19.456 19.456 0 11.68896 7.7824 19.46112 19.456 19.46112h115.56352c-3.89632-11.67872-3.89632-27.24864-3.89632-38.92736H40.81664v0.01024zM77.93664 272.90624c-11.6736-3.8912-23.36256 0-27.24864 7.7824-7.78752 11.67872-3.89632 23.35744 3.8912 27.25376L155.79136 366.336c3.8912-11.6736 11.6736-23.35744 15.56992-38.93248L77.93664 272.90624zM260.6848 80.51712c-3.89632-11.6736-19.46624-11.6736-27.24864-7.7824-7.7824 3.8912-11.6736 19.456-7.7824 27.25376l54.71232 98.96448c3.8912-3.89632 11.6736-3.89632 15.56992-7.7824 7.78752-3.89632 11.67872-7.78752 19.46112-11.67872L260.6848 80.51712zM959.1296 313.06752c7.7824-3.89632 11.67872-19.46112 7.7824-27.25376-3.8912-7.7824-19.45088-11.6736-27.24352-7.7824l-102.66112 61.056c3.91168 11.6736 11.68384 23.35744 15.58528 38.93248l106.53696-64.95232zM986.112 533.72416h-119.44448c0 15.5648-3.8912 27.2384-3.8912 38.92224h127.22176c11.67872 0 19.46624-7.77728 19.46624-19.456-0.00512-19.47648-15.5648-19.46624-23.35232-19.46624zM782.73024 99.98336c3.8912-7.78752 3.8912-23.35744-7.78752-27.25376-7.77216-3.89632-19.456-3.89632-23.35744 7.7824l-54.72256 98.9696c11.68896 7.7824 23.36256 11.6736 35.0464 19.46112l50.82112-98.95936z" p-id="3559"></path><path d="M312.07936 437.80096c-3.34336 0-6.6048-0.69632-9.69728-2.06336a23.86944 23.86944 0 0 1-12.68736-13.30688 23.90016 23.90016 0 0 1 0.44032-18.37568c34.17088-74.88512 99.50208-129.67936 179.24096-150.28736l3.33824-0.4864c1.55648-0.27136 2.97472-0.39936 4.3776-0.39936a23.84384 23.84384 0 0 1 22.88128 16.90112c3.87072 12.50816-3.11808 25.92768-15.56992 29.9264C417.90464 315.72992 363.008 360.8064 334.1568 423.26016c-3.9168 8.86272-12.5696 14.5408-22.07744 14.5408zM292.56192 510.208a25.22112 25.22112 0 0 1-25.19552-25.18528 25.22624 25.22624 0 0 1 25.19552-25.19552c13.89056 0 25.1904 11.30496 25.1904 25.19552s-11.29984 25.18528-25.1904 25.18528z" p-id="3560"></path></svg>