<?xml version="1.0" standalone="no"?><!DOCTYPE svg PUBLIC "-//W3C//DTD SVG 1.1//EN" "http://www.w3.org/Graphics/SVG/1.1/DTD/svg11.dtd"><svg t="1577772663539" class="icon" viewBox="0 0 1024 1024" version="1.1" xmlns="http://www.w3.org/2000/svg" p-id="1450" xmlns:xlink="http://www.w3.org/1999/xlink" width="400" height="400"><defs><style type="text/css"></style></defs><path d="M802.816 92.672h-624.64c-39.424 0-71.68 31.232-71.68 70.144v698.88c0 38.4 32.256 70.144 71.68 70.144h355.328c12.8 0 23.552-10.24 23.552-23.552 0-12.8-10.24-23.552-23.552-23.552H177.664c-13.824 0-25.088-10.24-25.088-23.04V162.816c0-12.8 11.264-23.04 25.088-23.04h624.64c13.824 0 25.088 10.24 25.088 23.04v291.328c0 12.8 10.24 23.552 23.552 23.552s23.552-10.24 23.552-23.552V162.816c0-38.912-32.256-70.144-71.68-70.144z" p-id="1451"></path><path d="M733.696 223.744H244.736c-12.8 0-23.552 10.24-23.552 23.552 0 12.8 10.24 23.552 23.552 23.552h488.96c12.8 0 23.552-10.24 23.552-23.552 0-13.312-10.752-23.552-23.552-23.552z m0 165.888H244.736c-12.8 0-23.552 10.24-23.552 23.552s10.24 23.552 23.552 23.552h488.96c12.8 0 23.552-10.24 23.552-23.552s-10.752-23.552-23.552-23.552z m-177.664 189.44c0-12.8-10.24-23.552-23.552-23.552H244.736c-12.8 0-23.552 10.24-23.552 23.552s10.24 23.552 23.552 23.552H532.48c13.312 0 23.552-10.752 23.552-23.552z m-311.296 143.872c-12.8 0-23.552 10.24-23.552 23.552 0 12.8 10.24 23.552 23.552 23.552H522.24c12.8 0 23.552-10.24 23.552-23.552 0-12.8-10.24-23.552-23.552-23.552H244.736z m671.744 133.12l-73.216-166.4c15.36-22.528 24.064-49.664 23.552-78.848-2.048-71.68-60.928-128-132.096-128v35.328c25.088 0 49.152 9.728 67.584 27.136 18.432 17.92 28.672 41.472 29.184 66.56 1.024 26.112-8.704 50.688-26.112 69.12-17.92 18.944-41.984 29.696-67.584 30.208h-3.072c-25.088 0-49.152-9.728-67.584-27.136-18.432-17.408-28.672-40.96-29.696-66.56-1.536-53.248 40.448-98.304 94.208-99.84h3.072v-35.328h-4.096c-72.704 2.048-130.048 62.976-128 135.68 1.024 25.6 8.704 49.152 22.016 69.12L552.96 849.92c-2.56 5.12-1.536 11.264 2.56 15.872 3.584 4.096 9.728 6.144 15.36 4.096l53.76-16.896 23.552 50.688c2.56 5.12 7.68 8.704 13.312 8.704s10.752-3.584 13.312-8.704l58.88-133.632 61.44 139.776c2.56 5.12 7.68 8.704 13.312 8.704s10.752-3.072 13.312-8.704l23.552-50.688 53.76 16.896c5.632 1.536 11.264 0 15.36-4.096 3.584-4.608 4.608-10.752 2.048-15.872z m-256 6.656l-15.36-33.28c-3.072-6.656-10.752-9.728-17.92-7.68l-34.816 10.752 53.248-120.32c18.432 16.896 41.472 28.16 67.072 32.768l-52.224 117.76z m181.248-35.328c-7.168-2.048-14.336 1.024-17.92 7.68l-15.36 33.28-54.272-122.88c25.6-4.096 49.152-15.36 67.584-31.232l54.784 124.416-34.816-11.264z" p-id="1452"></path></svg>