<?xml version="1.0" standalone="no"?><!DOCTYPE svg PUBLIC "-//W3C//DTD SVG 1.1//EN" "http://www.w3.org/Graphics/SVG/1.1/DTD/svg11.dtd"><svg t="1577772862741" class="icon" viewBox="0 0 1024 1024" version="1.1" xmlns="http://www.w3.org/2000/svg" p-id="4680" xmlns:xlink="http://www.w3.org/1999/xlink" width="400" height="400"><defs><style type="text/css"></style></defs><path d="M821.171502 559.161113l-29.600155-32.027437c131.34749-121.509425 69.549006-250.222925 66.86692-255.627005-33.437553-60.779272-80.541361-99.480712-135.799896-111.215988-54.517661-11.605316-107.605763 5.111414-136.130424 26.789133-71.053266 53.975309-244.043179 244.118903-245.778706 246.037603l-32.282241-29.344329c7.207146-7.922437 177.463808-195.043185 251.67909-251.42531 33.784454-25.638937 98.980315-50.093908 171.58696-34.720779 47.448662 10.073426 114.631784 41.420365 165.312046 133.585461C898.195759 253.466806 977.286072 414.71735 821.171502 559.161113L821.171502 559.161113zM222.689848 567.506175c-183.991478-120.697943-98.649787-310.35342-97.765651-312.248583 64.74356-118.123304 168.489412-131.294278 198.756763-132.542712 111.236454-4.868891 191.230346 86.785575 194.596 90.674139l-32.997532 28.512381c-0.691755-0.787946-70.212108-79.494519-159.787216-75.617212-24.50409 1.011027-108.574834 11.847839-161.675216 108.646466-2.246157 5.028527-69.272713 156.373467 82.784448 256.118192l-23.911596 36.459377L222.689848 567.506175zM556.459584 910.405849c-21.654182 0-49.479925-9.112542-79.124082-42.206264l32.498158-29.089525c14.869662 16.609283 37.328164 34.432207 59.851133 25.004487 17.735943-7.392364 16.653285-45.89426 15.393595-55.79884l-3.225461-25.358551 25.547863 0.763386c20.025079 0.193405 34.337039-3.617387 42.427298-12.69002 11.927657-13.352099 8.953929-34.901905 8.922207-35.112706l-4.033873-27.748994 27.854395 2.747577c19.557428 2.046612 33.828456-1.363044 42.281989-10.114358 12.972453-13.414521 12.671601-38.84061 11.481496-47.512107l-7.004531-50.336432 41.289382 29.512151c5.028527 3.557012 21.48943-1.534959 33.901111-15.94925 7.582699-8.79941 17.995863-25.939789 2.558265-41.823548-37.332257-38.461987-137.158846-137.612171-175.708837-175.833681-25.467021 25.127284-72.319096 68.844971-99.968829 79.470983-115.428939 44.337811-187.492208-25.212218-209.478965-68.210521l38.778188-19.950378c1.902326 3.641947 47.967478 88.647993 155.050332 47.443545 19.475564-7.475252 70.092381-54.0715 99.833753-84.754313l15.332197-15.844873 15.673981 15.505136c1.446955 1.446955 145.029094 143.635351 191.794188 191.807491 27.216875 28.024264 26.897603 68.485791-0.808412 100.639095-14.71719 17.10047-36.458353 30.260188-57.840336 32.050973-1.86958 16.820084-7.665587 37.542035-23.252587 53.829999-13.693884 14.310937-31.960922 22.318308-54.482869 23.936155-1.671059 13.630439-6.582929 30.456662-19.249413 44.86993-12.896728 14.674211-30.791284 23.576975-53.368488 26.578332-1.063215 29.216415-10.975982 64.825424-42.902112 78.136591-7.523347 3.140527-17.796318 6.03853-30.019711 6.03853L556.460608 910.405849zM242.120386 694.581362c-19.642362 0-39.4812-8.927323-54.451146-24.511253-12.607132-13.119809-20.434401-29.624714-22.017456-46.469358-1.746784-18.443048 4.321422-35.795251 16.653285-47.634904l106.019639-101.811804c23.636327-22.701025 67.366294-18.356067 93.828992 9.217942 12.603039 13.099343 20.430308 29.600155 22.016433 46.468334 1.746784 18.419512-4.320399 35.800367-16.632819 47.64002L281.505395 679.286004C271.208888 689.147606 257.218246 694.581362 242.120386 694.581362L242.120386 694.581362zM327.694367 502.474043c-2.682086 0-6.460132 0.551562-9.178033 3.149736l-106.004289 101.791337c-3.653203 3.515057-3.724835 9.095145-3.441379 12.095479 0.664126 6.963599 4.325515 14.394848 10.05296 20.36277 10.096962 10.453073 25.695219 14.158465 32.19833 7.941879l106.000196-101.791337c3.64911-3.514033 3.713578-9.098215 3.437286-12.098549-0.659009-6.964622-4.320399-14.374382-10.061147-20.338211-6.687306-6.960529-15.281031-11.117199-22.99983-11.117199L327.694367 502.474043zM311.713394 764.748445c-19.643386 0-39.489386-8.9263-54.431703-24.491811-27.352975-28.452006-29.767977-70.679759-5.395894-94.127797l106.027825-101.81078c23.680329-22.680559 67.390853-18.356067 93.836155 9.223059 12.608156 13.113669 20.434401 29.618575 22.021549 46.463218 1.746784 18.443048-4.325515 35.799344-16.652262 47.64002l-106.020662 101.811804C340.813153 759.315712 326.830697 764.748445 311.713394 764.748445L311.713394 764.748445zM397.298632 572.640102c-2.693342 0-6.471388 0.555655-9.201569 3.15383l-105.996103 101.790314c-6.027274 5.788843-4.800329 20.570501 6.623861 32.454156 6.675026 6.959505 15.265682 11.092639 22.984481 11.092639 2.694365 0 6.475482-0.534166 9.18929-3.149736l106.008382-101.791337c3.66139-3.51301 3.725858-9.094122 3.449565-12.099572-0.659009-6.963599-4.324492-14.370289-10.05296-20.338211C413.624459 576.791655 405.01743 572.640102 397.298632 572.640102L397.298632 572.640102zM381.329938 834.932923c-19.646456 0-39.493479-8.922207-54.455239-24.506137-27.344788-28.429493-29.772071-70.657246-5.399987-94.104261l106.031918-101.81078c23.687492-22.662139 67.366294-18.317181 93.824899 9.17701 27.357068 28.492938 29.762861 70.720691 5.379521 94.148263l-105.987916 101.81078c-10.304693 9.857509-24.299429 15.286148-39.397289 15.286148L381.329938 834.933947zM466.903919 642.830721c-3.917216 0-7.018857 1.063215-9.209756 3.149736l-105.996103 101.791337c-6.028297 5.791913-4.804423 20.554128 6.619768 32.43369 6.687306 6.963599 15.293311 11.117199 23.01211 11.117199 2.690272 0 6.471388-0.551562 9.197476-3.149736l105.96438-101.792361c6.04774-5.791913 4.820796-20.573571-6.599302-32.472576C483.216443 646.961808 474.622718 642.830721 466.903919 642.830721L466.903919 642.830721zM450.931133 905.10103c-19.631106 0-39.489386-8.922207-54.451146-24.490787-12.619412-13.135158-20.446681-29.640064-22.029736-46.485731-1.750877-18.443048 4.321422-35.799344 16.653285-47.64002l105.983823-101.81078c23.725354-22.701025 67.391876-18.3356 93.861738 9.197476 12.615319 13.143345 20.434401 29.644157 22.016433 46.492894 1.750877 18.438954-4.331655 35.815717-16.668635 47.65537l-105.97666 101.796454c-10.301623 9.857509-24.279986 15.288195-39.389102 15.288195L450.931133 905.10103zM536.484647 713.000873c-3.903913 0-7.003508 1.063215-9.196453 3.148713l-105.965403 101.791337c-3.673669 3.514033-3.737114 9.094122-3.461845 12.096503 0.664126 6.962575 4.325515 14.374382 10.05296 20.338211 6.695492 6.962575 15.302521 11.115152 23.02132 11.115152 2.693342 0 6.463202-0.530073 9.17701-3.149736l105.977683-101.791337c3.680832-3.51301 3.749394-9.093099 3.469008-12.095479-0.657986-6.963599-4.320399-14.396895-10.048867-20.360723C552.817638 717.152427 544.215726 713.000873 536.484647 713.000873L536.484647 713.000873zM573.443397 587.41255l122.229832 122.261555-30.843472 30.831192L542.605042 618.243743 573.443397 587.41255 573.443397 587.41255zM652.405797 513.412163l115.973338 115.973338-30.834262 30.835286L621.571534 544.247448 652.405797 513.412163 652.405797 513.412163zM652.405797 513.412163" p-id="4681"></path></svg>