<?xml version="1.0" standalone="no"?><!DOCTYPE svg PUBLIC "-//W3C//DTD SVG 1.1//EN" "http://www.w3.org/Graphics/SVG/1.1/DTD/svg11.dtd"><svg t="1577945977254" class="icon" viewBox="0 0 1024 1024" version="1.1" xmlns="http://www.w3.org/2000/svg" p-id="68145" xmlns:xlink="http://www.w3.org/1999/xlink" width="400" height="400"><defs><style type="text/css"></style></defs><path d="M1008.064261 545.869431l-496.67786 466.263317a52.644133 52.644133 0 0 1-70.688235-3.627423 44.924233 44.924233 0 0 1 0-62.31726L902.962017 513.036606 440.698166 79.699124a45.947353 45.947353 0 0 1 0-65.944682 52.551122 52.551122 0 0 1 70.688235 0l496.67786 466.263317a45.575309 45.575309 0 0 1 14.881733 33.018847 45.482298 45.482298 0 0 1-14.881733 32.832825z m-411.107892-32.832825a45.482298 45.482298 0 0 1-14.881733 32.832825L85.396775 1012.132748a52.644133 52.644133 0 0 1-70.688234-3.627423 44.924233 44.924233 0 0 1 0-62.31726l462.263851-433.151459L14.708541 79.699124a44.459179 44.459179 0 0 1 0-65.944682 52.551122 52.551122 0 0 1 70.688234 0l496.677861 466.263317a45.575309 45.575309 0 0 1 14.881733 33.018847z" p-id="68146"></path></svg>