<?xml version="1.0" standalone="no"?><!DOCTYPE svg PUBLIC "-//W3C//DTD SVG 1.1//EN" "http://www.w3.org/Graphics/SVG/1.1/DTD/svg11.dtd"><svg t="1577772972324" class="icon" viewBox="0 0 1024 1024" version="1.1" xmlns="http://www.w3.org/2000/svg" p-id="9147" xmlns:xlink="http://www.w3.org/1999/xlink" width="400" height="400"><defs><style type="text/css"></style></defs><path d="M978.002 178.234H316.444a43.35 43.35 0 0 1 0-86.7h661.558a43.35 43.35 0 0 1 0 86.7z m0 376.307H316.444a43.35 43.35 0 0 1 0-86.7h661.558a43.35 43.35 0 0 1 0 86.7z m0 376.314H316.444a43.35 43.35 0 0 1 0-86.7h661.558a43.35 43.35 0 0 1 0 86.7zM0.004 134.884a101.779 101.779 0 1 0 203.557 0 101.779 101.779 0 1 0-203.557 0zM0.004 509.334a101.779 101.779 0 1 0 203.557 0 101.779 101.779 0 1 0-203.557 0zM0.004 883.792a101.779 101.779 0 1 0 203.557 0 101.779 101.779 0 1 0-203.557 0z" p-id="9148"></path></svg>