<?xml version="1.0" standalone="no"?><!DOCTYPE svg PUBLIC "-//W3C//DTD SVG 1.1//EN" "http://www.w3.org/Graphics/SVG/1.1/DTD/svg11.dtd"><svg t="1577773100714" class="icon" viewBox="0 0 1025 1024" version="1.1" xmlns="http://www.w3.org/2000/svg" p-id="12673" xmlns:xlink="http://www.w3.org/1999/xlink" width="400.390625" height="400"><defs><style type="text/css"></style></defs><path d="M512 0C229.23 0 0 229.23 0 512s229.23 512 512 512 512.001-229.23 512.001-512S794.771 0 512 0z m347.568 859.566c-45.148 45.148-97.717 80.594-156.246 105.348-60.585 25.626-124.954 38.619-191.321 38.619-66.365 0-130.736-12.993-191.32-38.619-58.53-24.754-111.098-60.2-156.247-105.348-45.148-45.148-80.592-97.717-105.348-156.246C33.46 642.736 20.467 578.367 20.467 512S33.46 381.264 59.086 320.679c24.756-58.53 60.2-111.098 105.348-156.246S262.151 83.84 320.681 59.085C381.264 33.459 445.634 20.466 512 20.466c66.365 0 130.736 12.993 191.321 38.619 58.53 24.756 111.098 60.2 156.246 105.348 45.148 45.148 80.592 97.718 105.348 156.246 25.626 60.585 38.619 124.954 38.619 191.321s-12.993 130.736-38.619 191.32c-24.754 58.53-60.199 111.098-105.347 156.246z" p-id="12674"></path><path d="M357.144 436.424c22.093 0 30.758-18.629 30.758-38.772 0-20.144-8.665-38.664-30.758-38.664-21.443 0-29.566 18.52-29.566 38.664 0 20.143 8.123 38.772 29.566 38.772z m0.541-62.49c12.13 0 12.455 13.862 12.455 23.718 0 9.855-0.325 23.826-12.455 23.826-11.696 0-12.346-13.97-12.346-23.826s0.65-23.719 12.346-23.719zM459.488 436.424c22.094 0 30.759-18.629 30.759-38.772 0-20.144-8.665-38.664-30.759-38.664-21.443 0-29.565 18.52-29.565 38.664 0 20.143 8.122 38.772 29.565 38.772z m0.541-62.49c12.13 0 12.455 13.862 12.455 23.718 0 9.855-0.324 23.826-12.455 23.826-11.696 0-12.346-13.97-12.346-23.826 0.001-9.856 0.65-23.719 12.346-23.719zM561.832 436.424c22.094 0 30.758-18.629 30.758-38.772 0-20.144-8.664-38.664-30.758-38.664-21.443 0-29.565 18.52-29.565 38.664 0 20.143 8.122 38.772 29.565 38.772z m0.542-62.49c12.13 0 12.455 13.862 12.455 23.718 0 9.855-0.324 23.826-12.455 23.826-11.696 0-12.346-13.97-12.346-23.826s0.649-23.719 12.346-23.719zM664.177 436.424c22.094 0 30.758-18.629 30.758-38.772 0-20.144-8.664-38.664-30.758-38.664-21.443 0-29.565 18.52-29.565 38.664-0.002 20.143 8.122 38.772 29.565 38.772z m0.541-62.49c12.13 0 12.455 13.862 12.455 23.718 0 9.855-0.325 23.826-12.455 23.826-11.696 0-12.346-13.97-12.346-23.826s0.65-23.719 12.346-23.719z" p-id="12675"></path><path d="M511.202 130.307c-211.368 0-382.716 171.347-382.716 382.716S299.834 895.74 511.202 895.74c211.369 0 382.716-171.348 382.716-382.717S722.571 130.307 511.202 130.307zM291.817 363.062c0-21.35 17.307-38.659 38.659-38.659H691.93c21.351 0 38.658 17.309 38.658 38.659v63.786c0 21.35-17.307 38.658-38.658 38.658H330.475c-21.352 0-38.659-17.308-38.659-38.658v-63.786z m42.047 364.145c-53.051 0-96.059-43.007-96.059-96.058 0-53.052 43.007-96.06 96.059-96.06s96.059 43.008 96.059 96.06-43.008 96.058-96.06 96.058zM532.267 850.03c-53.053 0-96.06-43.008-96.06-96.059 0-53.051 43.007-96.059 96.06-96.059 53.05 0 96.058 43.008 96.058 96.059 0 53.051-43.007 96.059-96.058 96.059z m189.809-122.822c-53.053 0-96.06-43.007-96.06-96.058 0-53.052 43.007-96.06 96.06-96.06 53.052 0 96.058 43.008 96.058 96.06s-43.006 96.058-96.058 96.058z" p-id="12676"></path><path d="M343.356 628.33l-11.912-53.29-11.913 53.288c-11.71 4.72-19.979 16.183-19.979 29.583 0 17.613 14.279 31.893 31.892 31.893s31.891-14.28 31.891-31.893c0-13.399-8.268-24.862-19.979-29.582zM738.74 628.33l-11.913-53.29-11.913 53.29c-11.71 4.719-19.979 16.182-19.979 29.582 0 17.613 14.279 31.893 31.892 31.893s31.891-14.28 31.891-31.893c0-13.4-8.268-24.863-19.979-29.583zM544.179 754.446l-11.912-53.289-11.913 53.289c-11.71 4.72-19.978 16.182-19.978 29.583 0 17.613 14.278 31.892 31.892 31.892s31.89-14.28 31.89-31.892c0-13.4-8.27-24.863-19.98-29.583z" p-id="12677"></path></svg>