<?xml version="1.0" standalone="no"?><!DOCTYPE svg PUBLIC "-//W3C//DTD SVG 1.1//EN" "http://www.w3.org/Graphics/SVG/1.1/DTD/svg11.dtd"><svg t="1577773034025" class="icon" viewBox="0 0 1024 1024" version="1.1" xmlns="http://www.w3.org/2000/svg" p-id="9539" xmlns:xlink="http://www.w3.org/1999/xlink" width="400" height="400"><defs><style type="text/css"></style></defs><path d="M880.64 0H51.2a20.48 20.48 0 0 0-20.48 20.48v983.04a20.48 20.48 0 0 0 20.48 20.48h829.44a20.48 20.48 0 0 0 20.48-20.48V20.48a20.48 20.48 0 0 0-20.48-20.48z m-61.44 942.08H112.64V81.92h706.56v860.16z" p-id="9540"></path><path d="M686.08 728.96a20.48 20.48 0 0 1-20.48 20.48H266.24a20.48 20.48 0 0 1-20.48-20.48v-133.12a20.48 20.48 0 0 1 20.48-20.48h399.36a20.48 20.48 0 0 1 20.48 20.48v133.12z" p-id="9541"></path><path d="M400.22528 289.01888c-14.10048 0-21.15072 17.1008-21.15072 51.3024 0 32.15872 6.87104 48.24064 20.608 48.24064 13.50144 0 20.2496-16.55808 20.2496-49.67936 0.00512-33.24416-6.56896-49.86368-19.70688-49.86368zM528.64 289.01888c-14.10048 0-21.15072 17.1008-21.15072 51.3024 0 32.15872 6.87104 48.24064 20.608 48.24064 13.50144 0 20.2496-16.55808 20.2496-49.67936 0.00512-33.24416-6.56896-49.86368-19.70688-49.86368z" p-id="9542"></path><path d="M732.16 204.8H199.68a20.48 20.48 0 0 0-20.48 20.48v225.28a20.48 20.48 0 0 0 20.48 20.48h532.48a20.48 20.48 0 0 0 20.48-20.48V225.28a20.48 20.48 0 0 0-20.48-20.48zM308.08064 391.84384c-8.69888 12.69248-21.26848 19.03616-37.7088 19.03616-32.75776 0-49.14176-23.28064-49.14176-69.84192 0-24.12032 4.43904-42.54208 13.32224-55.26016s21.71904-19.08224 38.51776-19.08224c32.04096 0 48.06144 23.70048 48.06144 71.10144 0 23.34208-4.352 41.35424-13.05088 54.04672z m128.41472 0c-8.69888 12.69248-21.26848 19.03616-37.7088 19.03616-32.75776 0-49.14176-23.28064-49.14176-69.84192 0-24.12032 4.43904-42.54208 13.32224-55.26016s21.71904-19.08224 38.51776-19.08224c32.04096 0 48.06144 23.70048 48.06144 71.10144 0 23.34208-4.352 41.35424-13.05088 54.04672z m128.41472 0c-8.69888 12.69248-21.26848 19.03616-37.7088 19.03616-32.75776 0-49.14176-23.28064-49.14176-69.84192 0-24.12032 4.43904-42.54208 13.32224-55.26016s21.71904-19.08224 38.51776-19.08224c32.04096 0 48.06144 23.70048 48.06144 71.10144 0 23.34208-4.352 41.35424-13.05088 54.04672z m128.41472 0c-8.69888 12.69248-21.26848 19.03616-37.7088 19.03616-32.75776 0-49.14176-23.28064-49.14176-69.84192 0-24.12032 4.43904-42.54208 13.32224-55.26016s21.71904-19.08224 38.51776-19.08224c32.04096 0 48.06144 23.70048 48.06144 71.10144 0 23.34208-4.352 41.35424-13.05088 54.04672z" p-id="9543"></path><path d="M271.81056 289.01888c-14.10048 0-21.15072 17.1008-21.15072 51.3024 0 32.15872 6.87104 48.24064 20.608 48.24064 13.50144 0 20.2496-16.55808 20.2496-49.67936 0.00512-33.24416-6.56896-49.86368-19.70688-49.86368zM657.05472 289.01888c-14.10048 0-21.15072 17.1008-21.15072 51.3024 0 32.15872 6.87104 48.24064 20.608 48.24064 13.50144 0 20.2496-16.55808 20.2496-49.67936 0.00512-33.24416-6.56896-49.86368-19.70688-49.86368z" p-id="9544"></path></svg>