<?xml version="1.0" standalone="no"?><!DOCTYPE svg PUBLIC "-//W3C//DTD SVG 1.1//EN" "http://www.w3.org/Graphics/SVG/1.1/DTD/svg11.dtd"><svg t="1577774067976" class="icon" viewBox="0 0 1024 1024" version="1.1" xmlns="http://www.w3.org/2000/svg" p-id="76570" xmlns:xlink="http://www.w3.org/1999/xlink" width="400" height="400"><defs><style type="text/css"></style></defs><path d="M880.169197 512.013303c23.161512-40.580231 41.810245-81.235163 55.140855-120.936373 39.370683-117.253494 28.798906-214.065424-29.761838-272.627191C846.986447 59.914578 750.226706 49.316196 632.94763 88.713484c-39.661302 13.31833-80.273255 31.942503-120.813577 55.070247-159.844521-91.25026-312.608787-106.413612-393.688407-25.333992-81.077573 81.078597-65.903989 233.846956 25.337061 393.683291-23.128767 40.542368-41.753963 81.155345-55.072293 120.817669-39.397289 117.253494-28.824489 214.065424 29.736255 272.600585 35.282574 35.308157 84.496439 53.145407 143.682423 53.145408 39.006386 0 82.360799-7.759731 128.944768-23.382547 39.702234-13.331633 80.356143-31.979342 120.936373-55.140854 40.582277 23.161512 81.236186 41.810245 120.93842 55.140854 46.582945 15.622816 89.938382 23.382547 128.944767 23.382547 59.185984 0 108.374266-17.862833 143.656841-53.145408 58.561767-58.535161 69.133543-155.348114 29.761837-272.600585-13.332656-39.701211-31.981389-80.355119-55.142901-120.937396zM654.168953 151.909805c39.266305-13.201673 75.460646-19.73753 107.098204-19.73753 41.400922 0 74.965365 11.222599 97.150644 33.407878 39.136346 39.161928 44.13622 113.607454 13.696953 204.27443-8.547677 25.450648-19.553335 51.395554-32.742728 77.504188-34.060747-49.181119-74.397431-97.439216-119.845529-142.887315-46.281069-46.281069-94.469582-86.357833-142.797263-119.868041 26.087145-13.170974 52.009538-24.159236 77.439719-32.69361z m148.172691 360.103498c-35.042097 54.931077-78.965469 109.406782-129.945561 160.387897-50.980091 50.980091-105.455797 94.903463-160.387897 129.944538-54.93517-35.042097-109.417015-78.964446-160.411433-129.944538-51.486628-51.493791-95.200222-106.315374-129.82788-160.563906 35.019585-54.874795 78.903048-109.295242 129.82788-160.234401 50.954509-50.940183 105.390305-94.832855 160.281474-129.85858 54.236252 34.627658 109.042485 78.384231 160.517856 129.85858 50.980091 50.993394 94.903463 105.47524 129.945561 160.41041zM165.576059 165.580153c23.227004-23.200398 56.764841-34.163077 97.046267-34.163078 52.67878 0 116.91171 18.896372 184.563506 53.343929-49.122791 34.033118-97.322559 74.324776-142.718469 119.710452-45.408189 45.419446-85.717244 93.644797-119.761617 142.794194-60.842717-119.447463-72.694649-228.120534-19.129687-281.685497z m204.27443 706.537671c-90.719164 30.387078-165.112502 25.413809-204.27443-13.69593-39.136346-39.136346-44.13622-113.580848-13.670347-204.248847 8.534374-25.431206 19.522636-51.354622 32.694633-77.44279 33.511231 48.331775 73.587995 96.520287 119.867018 142.800333 45.448098 45.448098 93.706195 85.784782 142.886291 119.845529-26.107611 13.189394-52.052516 24.195052-77.503165 32.741705z m488.567312-13.69593c-39.188534 39.188534-113.685225 44.084031-204.248848 13.69593-25.451672-8.547677-51.396577-19.553335-77.505211-32.742728 49.177026-34.060747 97.426937-74.397431 142.862755-119.844506 45.447075-45.435819 85.784782-93.686752 119.844505-142.863778 13.189394 26.109658 24.195052 52.054563 32.742729 77.506235 30.440289 90.667999 25.440415 165.112502-13.69593 204.248847z" p-id="76571"></path><path d="M512.005117 512.008186m-111.099331 0a111.099331 111.099331 0 1 0 222.198661 0 111.099331 111.099331 0 1 0-222.198661 0Z" p-id="76572"></path></svg>