<?xml version="1.0" standalone="no"?><!DOCTYPE svg PUBLIC "-//W3C//DTD SVG 1.1//EN" "http://www.w3.org/Graphics/SVG/1.1/DTD/svg11.dtd"><svg t="1577773967963" class="icon" viewBox="0 0 1024 1024" version="1.1" xmlns="http://www.w3.org/2000/svg" p-id="74922" xmlns:xlink="http://www.w3.org/1999/xlink" width="400" height="400"><defs><style type="text/css"></style></defs><path d="M906.215 199.964c-13.211-13.175-30.772-20.43-49.447-20.43-150.666 0-291.95-123.892-293.343-125.13-12.818-11.634-29.476-18.041-46.899-18.041-17.249 0-33.875 6.361-46.807 17.908-0.357 0.318-36.341 32.096-90.871 63.361-49.252 28.239-124.361 61.902-202.487 61.902-38.607 0-70.016 31.284-70.016 69.737v205.047c0 186.374 110.706 342.733 370.173 522.828 11.732 8.151 25.567 12.461 40.01 12.461 14.447 0 28.279-4.31 40.004-12.461 259.466-180.097 370.172-336.457 370.172-522.829V249.268c0.001-18.62-7.274-36.13-20.486-49.305z m-51.364 254.354c0 112.855-40.228 256.129-338.324 463.217-298.03-207.101-338.249-350.37-338.249-463.217V251.183c40.994-0.23 84.16-7.783 128.333-22.463 35.856-11.915 72.455-28.526 108.783-49.372 55.679-31.95 93.798-64.302 101.131-70.693 7.329 6.391 45.431 38.743 101.109 70.693 36.327 20.845 72.932 37.456 108.802 49.372 44.19 14.681 87.383 22.234 128.413 22.463l0.002 203.135z" p-id="74923"></path><path d="M692.637 550.48l-25.031-14.585c1.337-8.453 1.989-16.313 1.989-23.894 0-7.527-0.654-15.385-1.994-23.891l25.03-14.574c15.375-8.942 20.67-28.828 11.802-44.331l-25.059-43.776c-5.744-10.03-16.463-16.26-27.975-16.26a32.132 32.132 0 0 0-16.135 4.367l-25.292 14.727c-12.779-10.338-26.41-18.413-40.637-24.074v-16.47c0-17.903-14.475-32.469-32.267-32.469h-50.131c-17.785 0-32.255 14.566-32.255 32.469V364.2c-14.233 5.658-27.867 13.734-40.651 24.075l-25.296-14.729a32.119 32.119 0 0 0-16.13-4.366c-11.507 0-22.223 6.23-27.965 16.258l-25.072 43.763c-8.873 15.492-3.578 35.374 11.798 44.318l25.028 14.573c-1.337 8.453-1.989 16.311-1.989 23.893 0 7.526 0.654 15.383 1.994 23.892l-25.026 14.582c-15.386 8.933-20.681 28.81-11.806 44.31l25.071 43.773c5.738 10.03 16.458 16.26 27.973 16.259a32.11 32.11 0 0 0 16.127-4.364l25.29-14.727c12.769 10.339 26.405 18.417 40.653 24.084v16.483c0 17.903 14.47 32.47 32.255 32.47h50.131c17.792 0 32.267-14.567 32.267-32.47v-16.473c14.25-5.677 27.881-13.754 40.639-24.083l25.293 14.729a32.114 32.114 0 0 0 16.125 4.363c11.513 0 22.235-6.229 27.984-16.258l25.058-43.772c8.877-15.483 3.583-35.36-11.795-44.305z m-204.249 78.289c-24.772-5.067-47.757-18.483-64.72-37.774l-3.908-4.446-39.925 23.244a5.219 5.219 0 0 1-2.65 0.723c-1.922 0-3.646-1.01-4.614-2.703l-12.537-21.889c-1.498-2.615-0.617-5.963 1.965-7.465l40.005-23.286-1.841-5.546c-4.176-12.578-6.293-25.238-6.293-37.628 0-12.347 2.122-25.013 6.307-37.646l1.837-5.543-40.013-23.283c-2.58-1.501-3.459-4.854-1.963-7.472l12.521-21.883a5.36 5.36 0 0 1 4.629-2.702c0.93 0 1.814 0.241 2.631 0.716l39.945 23.262 3.908-4.448c16.946-19.285 39.922-32.703 64.698-37.786l5.75-1.179v-33.683c0-3.001 2.395-5.441 5.341-5.441h25.06c2.945 0 5.34 2.439 5.34 5.441v33.686l5.753 1.177c24.773 5.068 47.758 18.483 64.72 37.775l3.908 4.445 39.943-23.247a5.173 5.173 0 0 1 2.64-0.719c1.926 0 3.653 1.01 4.62 2.703l12.532 21.884c1.499 2.62 0.618 5.982-1.946 7.484l-40.019 23.283 1.84 5.546c4.177 12.592 6.294 25.257 6.294 37.642 0 12.378-2.117 25.039-6.294 37.63l-1.84 5.546 40.015 23.284c2.579 1.501 3.459 4.854 1.965 7.467l-12.538 21.892c-0.967 1.69-2.693 2.699-4.618 2.699a5.194 5.194 0 0 1-2.639-0.719l-39.929-23.247-3.908 4.443c-16.975 19.295-39.962 32.711-64.722 37.777l-5.753 1.177v33.686c0 3.001-2.395 5.441-5.341 5.441h-25.059c-2.946 0-5.341-2.439-5.341-5.441v-33.7l-5.755-1.178z" p-id="74924"></path><path d="M581.868 512c0-38.809-31.34-70.381-69.862-70.381-38.522 0-69.862 31.573-69.862 70.381 0 38.809 31.339 70.38 69.862 70.38 38.509 0 69.849-31.571 69.862-70.38z m-69.862-30.716c16.762 0 30.4 13.779 30.4 30.716 0 16.935-13.638 30.716-30.4 30.716S481.607 528.937 481.607 512s13.637-30.716 30.399-30.716z" p-id="74925"></path></svg>