<?xml version="1.0" standalone="no"?><!DOCTYPE svg PUBLIC "-//W3C//DTD SVG 1.1//EN" "http://www.w3.org/Graphics/SVG/1.1/DTD/svg11.dtd"><svg t="1577773934042" class="icon" viewBox="0 0 1024 1024" version="1.1" xmlns="http://www.w3.org/2000/svg" p-id="74770" xmlns:xlink="http://www.w3.org/1999/xlink" width="400" height="400"><defs><style type="text/css"></style></defs><path d="M873.8 423.3C856.5 246.5 708.1 105.8 530.7 96.9 321.4 86.4 148.4 253.1 148.4 460.1c0 124.6 62.6 234.5 158.2 300 20.1 13.8 48 4.6 57.3-17.9 7-16.9 1.2-36.3-13.8-46.7-74.8-51.5-123.8-137.7-123.8-235.4 0-168.7 145.9-303.1 318.5-283.9 129 14.3 234.4 118 250.6 246.8 14.1 112.6-37.3 214.4-121.2 272.4-15.1 10.5-21 29.9-14 46.8 10.4 25.1 36.6 32.2 59 16.7C823 686.8 887.4 562.1 873.8 423.3z" p-id="74771"></path><path d="M598 591l0.4 1.1c10.7 26 44.5 31.8 63.9 11.5 43-45.1 66-109.6 54.6-178.8-15-90.4-91.2-161.7-182.3-171.3-124.9-13.1-230.3 84.4-230.3 206.6 0 55.2 21.6 105.5 56.8 142.8 19.6 20.8 54 14.9 64.9-11.5 6-14.6 2.1-30.9-8.7-42.5-21.7-23.2-35.1-54.4-35.1-88.8 0-80.9 74.2-144.7 158.2-126.9 50.7 10.7 90.9 53 99.6 104.1 7.4 43.3-6.8 83.4-33.2 111.6C596 560.4 592 576.5 598 591z" p-id="74772"></path><path d="M512 460.1m-51.9 0a51.9 51.9 0 1 0 103.8 0 51.9 51.9 0 1 0-103.8 0Z" p-id="74773"></path><path d="M536 570.3c-8.8-21.4-39.2-21.4-48 0L370.9 891.7c-7 17.1 5.5 35.9 24 35.9H629c18.5 0 31.1-18.8 24-35.9L536 570.3z" p-id="74774"></path></svg>